<?xml version="1.0" encoding="UTF-8"?>
<svg xmlns="http://www.w3.org/2000/svg" xmlns:xlink="http://www.w3.org/1999/xlink" viewBox="0 0 883.75 823.15">
  <defs>
    <style>
      .cls-1 {
        opacity: .13;
      }

      .cls-2 {
        fill: url(#Degradado_sin_nombre_22);
        mix-blend-mode: screen;
      }

      .cls-2, .cls-3, .cls-4, .cls-5 {
        stroke-width: 0px;
      }

      .cls-6 {
        opacity: .24;
      }

      .cls-7 {
        isolation: isolate;
      }

      .cls-8 {
        opacity: .05;
      }

      .cls-3 {
        fill: url(#Gradiente_sem_nome_88);
      }

      .cls-9 {
        opacity: .22;
      }

      .cls-4 {
        fill: url(#Degradado_sin_nombre_20);
      }

      .cls-5 {
        fill: #fdfeff;
      }
    </style>
    <radialGradient id="Gradiente_sem_nome_88" data-name="Gradiente sem nome 88" cx="5222.25" cy="421.87" fx="5222.25" fy="421.87" r="715.51" gradientTransform="translate(5238.37) rotate(-180) scale(1 -1)" gradientUnits="userSpaceOnUse">
      <stop offset="0" stop-color="#fdfeff"/>
      <stop offset="1" stop-color="#0000c0" stop-opacity="0"/>
    </radialGradient>
    <radialGradient id="Degradado_sin_nombre_22" data-name="Degradado sin nombre 22" cx="5076.62" cy="413.78" fx="5076.62" fy="413.78" r="311.25" gradientTransform="translate(5238.37) rotate(-180) scale(1 -1)" gradientUnits="userSpaceOnUse">
      <stop offset="0" stop-color="#fcfcff"/>
      <stop offset=".12" stop-color="rgba(250, 251, 254, .98)" stop-opacity=".98"/>
      <stop offset=".27" stop-color="rgba(246, 250, 254, .93)" stop-opacity=".93"/>
      <stop offset=".43" stop-color="rgba(238, 249, 253, .84)" stop-opacity=".84"/>
      <stop offset=".59" stop-color="rgba(228, 246, 252, .72)" stop-opacity=".72"/>
      <stop offset=".77" stop-color="rgba(215, 243, 251, .56)" stop-opacity=".56"/>
      <stop offset=".94" stop-color="rgba(199, 240, 250, .37)" stop-opacity=".37"/>
      <stop offset="1" stop-color="#c2effa" stop-opacity=".31"/>
    </radialGradient>
    <linearGradient id="Degradado_sin_nombre_20" data-name="Degradado sin nombre 20" x1="4835.72" y1="350.24" x2="5226.33" y2="350.24" gradientTransform="translate(5238.37) rotate(-180) scale(1 -1)" gradientUnits="userSpaceOnUse">
      <stop offset="0" stop-color="#fcfcff" stop-opacity="0"/>
      <stop offset="1" stop-color="#fcfcff"/>
    </linearGradient>
  </defs>
  <g class="cls-7">
    <g id="Camada_2" data-name="Camada 2">
      <g id="Camada_1-2" data-name="Camada 1">
        <g>
          <path class="cls-3" d="M296.46,823.12l-48.88-157.51s-21.73-40.74-82.83-46.17c-61.1-5.43-96.41,4.07-101.84,0-5.43-4.07-40.06-19.69-31.91-48.2,8.15-28.52,17.65-32.59,5.43-54.31,0,0-14.94-14.94,1.36-27.16,0,0-20.37-20.37-16.29-33.95,0,0,19.01-28.52,8.15-42.09,0,0-32.59-4.07-28.52-36.66,0,0-2.72-8.15,32.59-32.59,35.3-24.44,38.02-67.89,32.59-86.9,0,0-5.43-24.44,9.51-44.81,0,0,32.59-130.36,114.06-179.24C271.34-15.37,589.09,3.64,589.09,3.64l294.66,1.36-9.51,790.29v27.16l-577.78.68Z"/>
          <path class="cls-2" d="M296.57,823.08l-11.95-39.46-12-39.45-24.18-78.84-.03-.09-.04-.06c-3.46-5.94-7.84-11.07-12.62-15.84-2.4-2.37-4.92-4.62-7.56-6.72-2.63-2.11-5.36-4.1-8.19-5.93-11.28-7.4-24-12.49-37.12-15.46-6.56-1.49-13.26-2.4-19.94-2.95-6.67-.56-13.35-.97-20.04-1.22-13.38-.52-26.78-.35-40.14.4-6.68.37-13.35.89-20,1.44-3.33.27-6.65.55-9.97.73-1.66.08-3.32.16-4.95.11-.82-.02-1.63-.08-2.41-.18-.75-.14-1.57-.29-2.07-.66-1.41-.98-2.87-1.81-4.3-2.67-1.43-.85-2.85-1.72-4.26-2.6-2.8-1.79-5.54-3.66-8.13-5.73-5.16-4.12-9.9-8.94-12.98-14.78-1.54-2.9-2.65-6.04-3.16-9.29-.51-3.25-.41-6.58.23-9.81,1.54-6.42,3.79-12.75,6.16-18.97,1.18-3.12,2.46-6.21,3.54-9.39,1.08-3.17,1.98-6.46,2.13-9.86.2-3.4-.53-6.79-1.64-9.95-1.07-3.2-2.65-6.18-4.22-9.14l-.02-.03-.04-.04c-1.75-1.87-3.23-4.06-4.33-6.38-1.09-2.33-1.81-4.86-1.77-7.42.01-2.55.79-5.07,2.16-7.22,1.38-2.15,3.24-3.99,5.31-5.54l.39-.29-.35-.36c-2.24-2.32-4.36-4.8-6.34-7.35-1.98-2.56-3.84-5.23-5.46-8.02-1.63-2.79-3.02-5.72-3.94-8.78-.87-3.05-1.25-6.33-.35-9.34l-.07.14c2.08-3.2,3.9-6.51,5.57-9.93,1.64-3.42,3.11-6.93,4.22-10.58,1.11-3.64,1.87-7.43,1.88-11.29-.02-3.84-.99-7.85-3.46-10.98l-.15-.19-.26-.04c-4.17-.68-8.31-2.09-12.08-4.05-3.78-1.97-7.22-4.6-9.91-7.87-2.67-3.28-4.52-7.19-5.42-11.33-.88-4.15-.93-8.45-.39-12.69l-.03-.35s-.01-.26.01-.43c0-.19.08-.42.11-.62.12-.42.24-.87.44-1.29.36-.86.85-1.7,1.36-2.52.55-.8,1.08-1.62,1.72-2.37l.91-1.15.99-1.1c2.64-2.94,5.55-5.67,8.59-8.24,6.06-5.19,12.56-9.83,19.12-14.45,3.34-2.31,6.44-4.96,9.37-7.77,2.94-2.81,5.63-5.87,8.06-9.13,4.88-6.5,8.75-13.75,11.5-21.39,2.77-7.63,4.5-15.63,5.18-23.72.66-8.08.41-16.31-1.57-24.27-.53-1.84-.72-3.81-.92-5.76-.19-1.96-.25-3.93-.26-5.9,0-3.94.39-7.88,1.12-11.74,1.42-7.74,4.6-15.1,9.15-21.47l.14-.19.06-.23c3.78-14.19,8.54-28.2,13.86-41.94,5.34-13.74,11.3-27.25,18.03-40.36,6.69-13.13,14.17-25.86,22.49-38.01,8.29-12.17,17.6-23.65,28.04-34.03,2.55-2.66,5.32-5.08,8.03-7.56,1.33-1.27,2.79-2.4,4.2-3.57,1.42-1.16,2.83-2.35,4.27-3.49l4.45-3.26,2.22-1.63c.75-.53,1.54-1.01,2.3-1.51l4.63-3c1.54-1,3.18-1.81,4.77-2.72,6.49-3.42,13.35-6.12,20.32-8.49,7-2.3,14.11-4.24,21.29-5.96,14.36-3.39,28.94-5.84,43.56-7.94,14.63-2.07,29.33-3.65,44.05-4.94l-.02-.23c-14.74,1.09-29.47,2.49-44.14,4.37-14.67,1.88-29.29,4.24-43.73,7.55-7.21,1.67-14.38,3.58-21.44,5.84-7.04,2.34-13.99,5.01-20.61,8.44-1.62.92-3.31,1.74-4.87,2.74l-4.7,3c-.78.51-1.58.98-2.34,1.51l-2.26,1.63-4.52,3.27c-1.46,1.14-2.89,2.33-4.34,3.49-1.44,1.18-2.91,2.31-4.27,3.58-2.76,2.49-5.57,4.92-8.16,7.58-10.6,10.4-20.07,21.92-28.51,34.12l-3.16,4.58-3.03,4.67c-2.06,3.09-3.93,6.29-5.86,9.45-3.75,6.4-7.37,12.87-10.73,19.48-6.79,13.18-12.79,26.75-18.18,40.56-5.37,13.82-10.16,27.84-14.01,42.21l.2-.42c-4.8,6.67-8.07,14.41-9.52,22.46-.75,4.02-1.13,8.1-1.12,12.18.01,2.04.08,4.08.29,6.12.22,2.03.42,4.08.99,6.1,1.92,7.63,2.2,15.65,1.58,23.54-.64,7.9-2.31,15.72-4.99,23.17-5.29,14.94-15.1,28.24-28.03,37.44-6.52,4.65-13.07,9.39-19.16,14.68-3.06,2.62-6,5.42-8.7,8.46l-1.01,1.14-.95,1.21c-.65.79-1.21,1.66-1.79,2.51-.54.89-1.07,1.79-1.47,2.78-.22.48-.37,1.02-.51,1.55-.05.29-.13.54-.14.86-.01.32-.06.55.07,1.06l-.03-.35c-.53,4.38-.45,8.87.5,13.22.97,4.34,2.96,8.47,5.79,11.91,2.85,3.43,6.47,6.14,10.4,8.16,3.95,2,8.13,3.42,12.54,4.1l-.41-.23c2.27,2.83,3.2,6.53,3.24,10.2,0,3.69-.71,7.38-1.78,10.95-1.06,3.58-2.5,7.05-4.1,10.44-1.62,3.37-3.43,6.69-5.45,9.82l-.05.07-.02.07c-.96,3.3-.52,6.76.4,9.92.97,3.17,2.41,6.16,4.08,8.98,1.67,2.83,3.55,5.52,5.57,8.09,2.02,2.58,4.15,5.05,6.45,7.4l.05-.65c-2.12,1.6-4.05,3.52-5.49,5.79-1.43,2.27-2.26,4.96-2.25,7.66-.03,2.7.74,5.35,1.88,7.75,1.16,2.4,2.66,4.61,4.51,6.56l-.06-.08c.76,1.48,1.59,2.92,2.3,4.42.67,1.52,1.39,3.02,1.87,4.6,1.08,3.11,1.77,6.4,1.57,9.69-.15,3.29-1.05,6.51-2.12,9.64-1.08,3.14-2.36,6.23-3.56,9.35-2.41,6.25-4.67,12.53-6.27,19.09-.67,3.32-.79,6.76-.28,10.12.5,3.36,1.61,6.61,3.18,9.62,3.13,6.04,7.93,11,13.14,15.23,2.61,2.13,5.37,4.05,8.19,5.88,2.79,1.84,5.77,3.47,8.45,5.31.88.61,1.78.73,2.65.91.87.13,1.73.19,2.58.22,1.7.06,3.38,0,5.06-.07,3.35-.16,6.69-.41,10.02-.65,6.66-.49,13.31-.96,19.97-1.27,13.32-.62,26.66-.7,39.97-.17,6.66.27,13.31.69,19.95,1.27,6.62.57,13.19,1.48,19.65,2.96,12.9,2.93,25.42,7.85,36.51,15.09,2.79,1.78,5.47,3.73,8.05,5.79,2.59,2.05,5.08,4.24,7.43,6.56,4.69,4.62,9.05,9.75,12.34,15.35l-.07-.16,24.7,78.68,12.44,39.31,12.5,39.29.22-.07Z"/>
          <path class="cls-4" d="M215.72,634.86l20.72-23.91h94.77v-1.61h-95.51l-21.2,24.47,1.22,1.06ZM98.95,620.2l1.22-1.05-22.85-26.46-36.07-2.4-.11,1.61,35.4,2.36,22.41,25.95ZM73.76,619.84l1.58-.34-3.57-16.68-1.58.34,3.57,16.68ZM114.24,619.74l1.61-.07c0-2.42-19.29-25.33-27.59-35.06l-.19-.22-49.12-8.39-.27,1.59,48.54,8.29c10.27,12.07,26.54,31.74,27.02,33.86ZM122.73,616.57l1.3-.95-28.77-39.56-53.91-10.78-.32,1.58,53.29,10.66,28.4,39.05ZM206.6,613.56l32.02-28.82h104.51v-1.61h-105.13l-32.48,29.23,1.08,1.2ZM156.38,603.8h34.29l-46.44-52.55-1.21,1.07,44.07,49.87h-30.02l-41.65-44.03-.3-.03-69.08-7.15-.17,1.6,68.78,7.12,41.72,44.1ZM221.48,570.94h69.66l40.55-38.93-1.12-1.16-40.08,38.48h-69.02v1.61ZM210.44,567.55l29.28-27.65v-30.66l54.6-56.21-1.16-1.12-55.06,56.68v30.62l-28.77,27.18,1.11,1.17ZM244.95,559.39l34.08-37.32v-33.84l35.24-35.24-1.14-1.14-35.71,35.71v33.89l-33.65,36.86,1.19,1.09ZM202.82,554.88l.72-1.44c-1.85-1.06-23.66-25.4-37.87-41.5l-.23-.26h-.35s-96.69-2.39-96.69-2.39l-18.05,9.63.76,1.42,17.68-9.43,95.91,2.37c6.49,7.35,35.75,40.43,38.12,41.61ZM51.31,539.23l20-21.18,84.2,2.37.05-1.61-84.92-2.39-20.5,21.7,1.17,1.11ZM322.94,510.62l17.74-14.51-1.02-1.25-17.74,14.51,1.02,1.25ZM41.49,506.08l27.23-10.66,100.11,4.77,98.87-57.18h31.72l-9.18,8.82,1.12,1.16,10.39-9.99h13.43l-.76.78,1.16,1.13,1.86-1.91h72.74v-1.61h-71.16l56-57.51h22.24v-1.61h-22.92l-57.57,59.13h-13.32l71.58-68.82c12.05-.74,25.2-1.02,26.54-.18l1.1-1.18c-1.69-1.69-20.17-.73-28.03-.23l-.3.02-.21.21-73,70.19h-33.83l-.19.11-98.65,57.05-99.98-4.76-27.55,10.78.59,1.5ZM322.97,496.08l17.74-16.12-1.08-1.19-17.74,16.13,1.09,1.19ZM41.2,490.65h124.09l.19-.12c22.35-13.51,56.28-33.82,58.13-34.45l-.18-.54v-1.05c-1.17,0-32.46,18.75-58.59,34.54H41.2v1.61ZM159.32,483.51l70.47-41.81-.82-1.39-70.07,41.57-117.68-3.57-.05,1.61,118.15,3.58ZM323.02,479.9l17.74-19.35-1.19-1.09-17.74,19.35,1.19,1.09ZM155.76,468.03l77.62-47.76-.85-1.37-77.22,47.52c-2.88-.03-31.76-.3-60.34-.44-61.16-.3-61.36.16-61.68.91l-.21.5.39.41.57-.57h0s0,0,0,0l.3.7c3.17-.85,88.55-.22,121.17.1h.23ZM34.62,466.65l-.55.55.55-.55ZM153.39,452.54l.2-.13,82.01-53.06-68.89-47.13-.91,1.33,66.89,45.77-79.77,51.62-126.01-1.19-.02,1.61,126.49,1.19ZM56.68,438.25h49.01l28.61-13.62-3.8.1c-35.03.93-88.22,1.75-91.2.17l-1.06,1.2c2.31,2.3,64.04.96,88.5.33l-21.42,10.2h-48.65v1.61ZM144.07,438.12l57.07-37.65-68.29-39.02-39.7,28.53,48.96,20.81.63-1.48-46.32-19.69,36.53-26.26,65.11,37.21-54.88,36.2.89,1.35ZM307.5,419.13l59.43-57.82h35.15v-1.61h-35.8l-.23.23-59.67,58.05,1.12,1.16ZM296.22,412.67l70.74-70.74c10.94-.64,27.72-1.17,29.92-.07l.72-1.44c-3.32-1.66-28.22-.25-31.05-.08l-.31.02-.22.22-70.95,70.95,1.14,1.14ZM39.22,406.69h16.46l.24-.24,62.89-62.89-1.14-1.14-62.65,62.65h-15.79v1.61ZM27.14,395.31c8.43,0,19.19-.61,20.99-.72l.31-.02.22-.22,70.95-70.95-1.14-1.14-70.74,70.74c-10.94.63-27.72,1.17-29.92.07l-.72,1.44c1.21.6,5.25.8,10.05.8ZM297.03,392.52l62.65-62.65h15.79v-1.61h-16.46l-.24.24-62.89,62.89,1.14,1.14ZM247.99,382.72l.91-1.33-66.89-45.77,79.77-51.62,126.01,1.19.02-1.61-126.49-1.19-.2.13-82.01,53.06,68.89,47.13ZM12.61,375.24h35.8l.23-.23,59.67-58.05-1.12-1.16-59.43,57.82H12.61v1.61ZM281.84,373.49l39.7-28.53-48.96-20.81-.63,1.48,46.32,19.69-36.53,26.26-65.11-37.21,54.88-36.2-.89-1.35-57.07,37.64,68.29,39.02ZM21.18,364.67c6.33,0,14.37-.44,18.9-.72l.3-.02.21-.21,83.85-80.63-1.12-1.16-83.64,80.42c-12.05.75-25.2,1.02-26.54.18l-1.1,1.18c.72.72,4.46.96,9.14.96ZM23.5,352.66h16.87l59.9-61.52-1.16-1.13-59.43,61.03h-16.19v1.61ZM182.17,316.05l77.22-47.52c2.88.03,31.76.3,60.34.44,61.16.3,61.36-.15,61.68-.91l.21-.5-.39-.41-.57.57h0s-.3-.7-.3-.7c-3.17.85-88.55.22-121.17-.1h-.23s-77.62,47.76-77.62,47.76l.85,1.37ZM280.39,310.31l3.8-.1c35.03-.93,88.22-1.75,91.2-.17l1.06-1.2c-2.31-2.31-64.04-.96-88.5-.34l21.42-10.2h48.65v-1.61h-49.01l-28.61,13.62ZM69.63,305.66l55.06-56.67v-30.62l28.77-27.17-1.11-1.17-29.28,27.65v30.66l-54.6,56.2,1.16,1.12ZM185.73,294.61l70.07-41.57,117.68,3.57.05-1.61-118.15-3.58-70.47,41.81.82,1.39ZM84.14,283.09l35.71-35.71v-33.89l33.65-36.86-1.19-1.09-34.08,37.32v33.84l-35.24,35.24,1.14,1.14ZM191.27,280.44c1.17,0,32.46-18.75,58.59-34.54h123.64v-1.61h-124.09l-.19.12c-22.35,13.51-56.28,33.82-58.13,34.45l.18.54v1.05ZM75.13,275.47l17.74-19.35-1.19-1.09-17.74,19.35,1.19,1.09ZM75.08,256.18l17.74-16.13-1.08-1.19-17.74,16.13,1.08,1.19ZM75.04,240.08l17.74-14.51-1.02-1.25-17.74,14.51,1.02,1.25ZM346.3,225.65l18.05-9.63-.76-1.42-17.68,9.43-95.91-2.37c-6.49-7.35-35.75-40.42-38.12-41.61l-.72,1.44c1.85,1.06,23.66,25.4,37.87,41.5l.23.26h.35s96.69,2.4,96.69,2.4ZM344.06,218.51l20.5-21.7-1.17-1.11-20,21.18-84.2-2.37-.05,1.61,84.92,2.39ZM84.13,204.08l40.08-38.48h69.02v-1.61h-69.67l-40.55,38.93,1.12,1.16ZM368.65,183.96l.17-1.6-68.78-7.12-38.3-40.49,15.89-14.5-1.09-1.19-15.91,14.52-2.31-2.44h-20.61l33.26-33.26h65.78v-1.61h-66.45l-.24.24-34.63,34.63h-11.4l3.39,3.83h-116.43v1.61h117.85l12.73,14.4-1.89,1.72H107.76v1.61h132.54l2.33-2.13,27.84,31.5,1.21-1.07-27.85-31.52,16.72-15.27,38.73,40.94,69.38,7.18ZM259.43,134.66l-16.68,15.23-11.77-13.31h1.27l3.83-3.83h21.53l1.81,1.92ZM231.59,134.97h-2.03l-1.96-2.22h6.21l-2.22,2.22ZM373.34,169.65l.32-1.58-53.29-10.66-28.4-39.05-1.3.95,28.77,39.56.31.06,53.6,10.72ZM375.75,158.94l.27-1.59-48.54-8.29c-10.27-12.07-26.53-31.74-27.02-33.86l-1.61.07c0,2.42,19.29,25.33,27.59,35.06l.19.22,49.12,8.39ZM373.45,144.66l.11-1.61-35.4-2.36-22.41-25.95-1.22,1.05,22.85,26.46,36.07,2.41ZM342.93,132.11l1.58-.34-3.57-16.67-1.58.34,3.57,16.67ZM119.04,126.9h105.13l32.48-29.23-1.08-1.2-32.02,28.82h-104.51v1.61ZM123.88,117.23h95.51l21.2-24.47-1.22-1.06-20.72,23.91h-94.77v1.61ZM128.72,97.88h74.54l.24-.27,28.62-31.98h-59.86v1.61h56.25l-25.97,29.03h-73.82v1.61Z"/>
          <g>
            <polygon class="cls-5" points="352.5 351.16 353.13 350.21 344.23 344.27 325.37 344.27 315.15 331.14 297.62 331.14 282.61 313.98 282.61 283.77 295.59 269.34 294.74 268.57 281.46 283.33 281.46 314.41 297.1 332.28 314.59 332.28 324.81 345.42 343.89 345.42 352.5 351.16"/>
            <polygon class="cls-5" points="200.43 290.33 234.49 290.33 242.52 281.57 264.16 281.57 264.16 280.42 242.01 280.42 233.99 289.18 200.91 289.18 161.68 249.22 160.86 250.02 200.43 290.33"/>
            <polygon class="cls-5" points="203.98 259.68 213.08 259.68 213.08 258.53 204.66 258.53 185.92 224.66 185.92 199.27 184.77 199.27 184.77 224.96 203.98 259.68"/>
            <polygon class="cls-5" points="151.21 219.7 152.35 219.7 152.35 199.5 166.78 185.08 165.97 184.27 151.21 199.03 151.21 219.7"/>
            <polygon class="cls-5" points="293.03 232.68 321.8 232.68 321.8 231.53 293.66 231.53 285.63 219.13 243.72 219.13 243.72 220.27 285.01 220.27 293.03 232.68"/>
            <polygon class="cls-5" points="279.99 259.36 288.43 242.48 233.76 242.48 212.77 219.32 211.92 220.08 233.25 243.62 286.58 243.62 278.97 258.85 279.99 259.36"/>
            <polygon class="cls-5" points="193.85 197.65 217.45 197.65 217.45 196.51 194.36 196.51 164.97 164.25 193.79 133.99 192.96 133.2 163.4 164.23 193.85 197.65"/>
            <polygon class="cls-5" points="228.76 131.85 254.09 111.13 218.84 111.13 246.88 83.09 268.53 83.09 268.53 81.94 246.41 81.94 216.07 112.28 250.88 112.28 228.04 130.96 228.76 131.85"/>
            <polygon class="cls-5" points="206.16 161.75 224.97 145.11 250.52 145.11 264.55 131.82 263.76 130.99 250.06 143.97 224.53 143.97 205.4 160.89 206.16 161.75"/>
            <polygon class="cls-5" points="270.89 184.76 272.02 184.59 269.15 165.19 282.62 153.14 296.26 153.14 296.26 151.99 282.18 151.99 267.92 164.75 270.89 184.76"/>
            <polygon class="cls-5" points="311.01 122.65 312.16 122.65 312.16 112.66 328.78 95.32 327.96 94.52 311.01 112.2 311.01 122.65"/>
            <polygon class="cls-5" points="360.1 98.29 388.43 75.93 374.53 65.89 325.23 65.89 317.04 73.33 317.81 74.18 325.67 67.03 374.16 67.03 386.53 75.97 359.39 97.39 360.1 98.29"/>
            <polygon class="cls-5" points="460.93 107.17 473.58 107.17 473.58 106.02 461.43 106.02 435.16 77.56 415.94 77.56 415.94 78.71 434.66 78.71 460.93 107.17"/>
            <polygon class="cls-5" points="527.74 136.51 528.88 136.51 528.88 124.26 501.89 124.26 501.89 108.78 500.74 108.78 500.74 125.41 527.74 125.41 527.74 136.51"/>
            <polygon class="cls-5" points="549.63 216.78 550.78 216.78 550.78 201.97 542.02 191.76 542.02 175.92 540.87 175.92 540.87 192.18 549.63 202.4 549.63 216.78"/>
            <polygon class="cls-5" points="523.36 190.51 524.51 190.51 524.51 180.81 510.64 164.76 510.64 151.99 490.37 151.99 490.37 153.14 509.5 153.14 509.5 165.18 523.36 181.24 523.36 190.51"/>
            <polygon class="cls-5" points="455.71 222.33 469.05 211.21 469.05 180.76 449.87 164.53 449.13 165.41 467.9 181.29 467.9 210.67 454.97 221.45 455.71 222.33"/>
            <polygon class="cls-5" points="404.02 212.25 431.26 212.25 431.26 211.1 404.5 211.1 384.07 189.94 366.32 189.94 366.32 191.08 383.59 191.08 404.02 212.25"/>
            <path class="cls-5" d="M335.16,209.74l1.02-.51-.51.26.51-.25c-.43-.94-.29-10.34.06-18.69l.03-.6h-34.16v1.15h32.97c-.16,3.95-.63,17.23.08,18.66Z"/>
            <path class="cls-5" d="M389.15,157.52h26.78v-1.15h-25.76l-2.19-20.43h-44.53l-.17.17c-4.27,4.27-12.93,12.64-15.18,13.76l.51,1.02c2.81-1.41,13.75-12.25,15.31-13.8h43.03l2.19,20.43Z"/>
            <polygon class="cls-5" points="408.8 142.19 423.96 142.19 423.96 141.05 409.94 141.05 409.94 115.35 408.8 115.35 408.8 142.19"/>
            <polygon class="cls-5" points="378.15 106.59 379.29 106.59 379.29 95.49 399.15 95.49 399.15 94.35 378.15 94.35 378.15 106.59"/>
            <polygon class="cls-5" points="492.28 176.42 492.83 175.42 466.86 160.99 466.86 133.1 434.02 128 434.02 106.59 432.88 106.59 432.88 128.98 465.71 134.08 465.71 161.66 492.28 176.42"/>
            <polygon class="cls-5" points="486.15 225.54 487.29 225.54 487.29 199.65 507.38 191.04 506.93 189.99 486.15 198.89 486.15 225.54"/>
            <polygon class="cls-5" points="437.1 265.51 473.81 265.51 501.89 239.65 501.89 225.54 500.74 225.54 500.74 239.15 473.36 264.37 437.1 264.37 437.1 265.51"/>
            <polygon class="cls-5" points="365.74 321.86 366.89 321.86 366.89 278.34 381.85 265.51 399.15 265.51 399.15 264.37 381.43 264.37 365.74 277.81 365.74 321.86"/>
            <polygon class="cls-5" points="328.8 303.26 347.92 281.21 347.92 268.02 323.99 268.02 323.99 269.16 346.77 269.16 346.77 280.78 327.94 302.51 328.8 303.26"/>
            <polygon class="cls-5" points="382.53 321.86 383.67 321.86 383.67 303.1 395.2 290.13 394.35 289.37 382.53 302.67 382.53 321.86"/>
            <polygon class="cls-5" points="492.06 371.03 493.05 370.47 487.29 360.38 487.29 325.82 463.37 318.37 449.5 318.37 449.5 319.51 463.28 319.51 486.15 326.66 486.15 360.69 492.06 371.03"/>
            <polygon class="cls-5" points="523.7 281.57 567.56 281.57 567.56 247.03 545.82 238.83 533.42 238.83 533.42 239.97 545.72 239.97 566.41 247.82 566.41 280.42 524.16 280.42 507.55 264.53 506.75 265.36 523.7 281.57"/>
            <path class="cls-5" d="M504.39,322.43h15.41l.17-.18c5.82-6.11,15.21-15.39,17.24-15.89l-.28-1.11c-2.9.73-15.48,13.8-17.62,16.04h-13.78v-28.46h-27.57v1.15h26.43v28.46Z"/>
            <path class="cls-5" d="M473.58,404.89h23.59l27.32-28.06v-.22c.5-16.63.44-25.36-.16-25.96l-.81.81.4-.4-.49.28c.44,1.18.19,15.87-.08,25.02l-26.68,27.4h-23.11v1.15Z"/>
            <polygon class="cls-5" points="442.54 371.17 443.33 370.33 431.83 359.56 431.83 336.45 430.69 336.45 430.69 360.05 442.54 371.17"/>
            <polygon class="cls-5" points="412.44 410.16 413.59 410.16 413.59 377.13 404 363.85 403.07 364.52 412.44 377.5 412.44 410.16"/>
            <polygon class="cls-5" points="400.77 454.67 401.91 454.67 401.91 436.2 383.67 416.5 383.67 364.18 382.53 364.18 382.53 416.95 400.77 436.65 400.77 454.67"/>
            <polygon class="cls-5" points="433.75 458.07 443.51 452.07 443.51 421.26 449.99 410.45 449.01 409.86 442.36 420.94 442.36 451.43 433.15 457.1 433.75 458.07"/>
            <polygon class="cls-5" points="380.67 236.33 415.94 236.33 415.94 235.18 381.15 235.18 363.08 216.38 362.25 217.18 380.67 236.33"/>
            <g>
              <path class="cls-5" d="M357.47,105.5c2.59,0,4.7-2.11,4.7-4.7s-2.11-4.7-4.7-4.7-4.7,2.11-4.7,4.7,2.11,4.7,4.7,4.7ZM357.47,97.66c1.73,0,3.13,1.41,3.13,3.13s-1.41,3.13-3.13,3.13-3.14-1.41-3.14-3.13,1.41-3.13,3.14-3.13Z"/>
              <g class="cls-6">
                <path class="cls-5" d="M357.47,107.18c3.52,0,6.39-2.87,6.39-6.39s-2.87-6.39-6.39-6.39-6.39,2.87-6.39,6.39,2.87,6.39,6.39,6.39ZM357.47,96.53c2.35,0,4.26,1.91,4.26,4.26s-1.91,4.26-4.26,4.26-4.26-1.91-4.26-4.26,1.91-4.26,4.26-4.26Z"/>
              </g>
              <g class="cls-1">
                <path class="cls-5" d="M357.47,109.48c4.79,0,8.68-3.89,8.68-8.68s-3.89-8.68-8.68-8.68-8.68,3.89-8.68,8.68,3.89,8.68,8.68,8.68ZM357.47,95.01c3.19,0,5.79,2.6,5.79,5.79s-2.6,5.79-5.79,5.79-5.79-2.6-5.79-5.79,2.6-5.79,5.79-5.79Z"/>
              </g>
            </g>
            <g>
              <path class="cls-5" d="M311.65,130.7c2.59,0,4.7-2.11,4.7-4.7s-2.11-4.7-4.7-4.7-4.7,2.11-4.7,4.7,2.11,4.7,4.7,4.7ZM311.65,122.86c1.73,0,3.13,1.41,3.13,3.13s-1.41,3.13-3.13,3.13-3.14-1.41-3.14-3.13,1.41-3.13,3.14-3.13Z"/>
              <g class="cls-6">
                <path class="cls-5" d="M311.65,132.38c3.52,0,6.39-2.87,6.39-6.39s-2.87-6.39-6.39-6.39-6.39,2.87-6.39,6.39,2.87,6.39,6.39,6.39ZM311.65,121.73c2.35,0,4.26,1.91,4.26,4.26s-1.91,4.26-4.26,4.26-4.26-1.91-4.26-4.26,1.91-4.26,4.26-4.26Z"/>
              </g>
              <g class="cls-1">
                <path class="cls-5" d="M311.65,134.67c4.79,0,8.68-3.89,8.68-8.68s-3.89-8.68-8.68-8.68-8.68,3.89-8.68,8.68,3.89,8.68,8.68,8.68ZM311.65,120.21c3.19,0,5.79,2.6,5.79,5.79s-2.6,5.79-5.79,5.79-5.79-2.6-5.79-5.79,2.6-5.79,5.79-5.79Z"/>
              </g>
            </g>
            <g>
              <path class="cls-5" d="M419.32,161.62c2.59,0,4.7-2.11,4.7-4.7s-2.11-4.7-4.7-4.7-4.7,2.11-4.7,4.7,2.11,4.7,4.7,4.7ZM419.32,153.78c1.73,0,3.13,1.41,3.13,3.13s-1.41,3.13-3.13,3.13-3.14-1.41-3.14-3.13,1.41-3.13,3.14-3.13Z"/>
              <g class="cls-6">
                <path class="cls-5" d="M419.32,163.31c3.52,0,6.39-2.87,6.39-6.39s-2.87-6.39-6.39-6.39-6.39,2.87-6.39,6.39,2.87,6.39,6.39,6.39ZM419.32,152.66c2.35,0,4.26,1.91,4.26,4.26s-1.91,4.26-4.26,4.26-4.26-1.91-4.26-4.26,1.91-4.26,4.26-4.26Z"/>
              </g>
              <g class="cls-1">
                <path class="cls-5" d="M419.32,165.6c4.79,0,8.68-3.89,8.68-8.68s-3.89-8.68-8.68-8.68-8.68,3.89-8.68,8.68,3.89,8.68,8.68,8.68ZM419.32,151.13c3.19,0,5.79,2.6,5.79,5.79s-2.6,5.79-5.79,5.79-5.79-2.6-5.79-5.79,2.6-5.79,5.79-5.79Z"/>
              </g>
            </g>
            <g>
              <path class="cls-5" d="M225.75,138.71c2.59,0,4.7-2.11,4.7-4.7s-2.11-4.7-4.7-4.7-4.7,2.11-4.7,4.7,2.11,4.7,4.7,4.7ZM225.75,130.88c1.73,0,3.13,1.41,3.13,3.13s-1.41,3.13-3.13,3.13-3.14-1.41-3.14-3.13,1.41-3.13,3.14-3.13Z"/>
              <g class="cls-6">
                <path class="cls-5" d="M225.75,140.4c3.52,0,6.39-2.87,6.39-6.39s-2.87-6.39-6.39-6.39-6.39,2.87-6.39,6.39,2.87,6.39,6.39,6.39ZM225.75,129.75c2.35,0,4.26,1.91,4.26,4.26s-1.91,4.26-4.26,4.26-4.26-1.91-4.26-4.26,1.91-4.26,4.26-4.26Z"/>
              </g>
              <g class="cls-1">
                <path class="cls-5" d="M225.75,142.69c4.79,0,8.68-3.89,8.68-8.68s-3.89-8.68-8.68-8.68-8.68,3.89-8.68,8.68,3.89,8.68,8.68,8.68ZM225.75,128.22c3.19,0,5.79,2.6,5.79,5.79s-2.6,5.79-5.79,5.79-5.79-2.6-5.79-5.79,2.6-5.79,5.79-5.79Z"/>
              </g>
            </g>
            <g>
              <path class="cls-5" d="M222.31,201.71c2.59,0,4.7-2.11,4.7-4.7s-2.11-4.7-4.7-4.7-4.7,2.11-4.7,4.7,2.11,4.7,4.7,4.7ZM222.31,193.87c1.73,0,3.13,1.41,3.13,3.13s-1.41,3.13-3.13,3.13-3.14-1.41-3.14-3.13,1.41-3.13,3.14-3.13Z"/>
              <g class="cls-6">
                <path class="cls-5" d="M222.31,203.4c3.52,0,6.39-2.87,6.39-6.39s-2.87-6.39-6.39-6.39-6.39,2.87-6.39,6.39,2.87,6.39,6.39,6.39ZM222.31,192.75c2.35,0,4.26,1.91,4.26,4.26s-1.91,4.26-4.26,4.26-4.26-1.91-4.26-4.26,1.91-4.26,4.26-4.26Z"/>
              </g>
              <g class="cls-1">
                <path class="cls-5" d="M222.31,205.69c4.79,0,8.68-3.89,8.68-8.68s-3.89-8.68-8.68-8.68-8.68,3.89-8.68,8.68,3.89,8.68,8.68,8.68ZM222.31,191.22c3.19,0,5.79,2.6,5.79,5.79s-2.6,5.79-5.79,5.79-5.79-2.6-5.79-5.79,2.6-5.79,5.79-5.79Z"/>
              </g>
            </g>
            <g>
              <path class="cls-5" d="M271.56,192.55c2.59,0,4.7-2.11,4.7-4.7s-2.11-4.7-4.7-4.7-4.7,2.11-4.7,4.7,2.11,4.7,4.7,4.7ZM271.56,184.71c1.73,0,3.13,1.41,3.13,3.13s-1.41,3.13-3.13,3.13-3.14-1.41-3.14-3.13,1.41-3.13,3.14-3.13Z"/>
              <g class="cls-6">
                <path class="cls-5" d="M271.56,194.23c3.52,0,6.39-2.87,6.39-6.39s-2.87-6.39-6.39-6.39-6.39,2.87-6.39,6.39,2.87,6.39,6.39,6.39ZM271.56,183.59c2.35,0,4.26,1.91,4.26,4.26s-1.91,4.26-4.26,4.26-4.26-1.91-4.26-4.26,1.91-4.26,4.26-4.26Z"/>
              </g>
              <g class="cls-1">
                <path class="cls-5" d="M271.57,196.53c4.79,0,8.68-3.89,8.68-8.68s-3.89-8.68-8.68-8.68-8.68,3.89-8.68,8.68,3.89,8.68,8.68,8.68ZM271.57,182.06c3.19,0,5.79,2.6,5.79,5.79s-2.6,5.79-5.79,5.79-5.79-2.6-5.79-5.79,2.6-5.79,5.79-5.79Z"/>
              </g>
            </g>
            <g>
              <path class="cls-5" d="M202.84,168.49c2.59,0,4.7-2.11,4.7-4.7s-2.11-4.7-4.7-4.7-4.7,2.11-4.7,4.7,2.11,4.7,4.7,4.7ZM202.84,160.66c1.73,0,3.13,1.41,3.13,3.13s-1.41,3.13-3.13,3.13-3.14-1.41-3.14-3.13,1.41-3.13,3.14-3.13Z"/>
              <g class="cls-6">
                <path class="cls-5" d="M202.84,170.18c3.52,0,6.39-2.87,6.39-6.39s-2.87-6.39-6.39-6.39-6.39,2.87-6.39,6.39,2.87,6.39,6.39,6.39ZM202.84,159.53c2.35,0,4.26,1.91,4.26,4.26s-1.91,4.26-4.26,4.26-4.26-1.91-4.26-4.26,1.91-4.26,4.26-4.26Z"/>
              </g>
              <g class="cls-1">
                <path class="cls-5" d="M202.84,172.47c4.79,0,8.68-3.89,8.68-8.68s-3.89-8.68-8.68-8.68-8.68,3.89-8.68,8.68,3.89,8.68,8.68,8.68ZM202.84,158c3.19,0,5.79,2.6,5.79,5.79s-2.6,5.79-5.79,5.79-5.79-2.6-5.79-5.79,2.6-5.79,5.79-5.79Z"/>
              </g>
            </g>
            <g>
              <path class="cls-5" d="M151.3,229.2c2.59,0,4.7-2.11,4.7-4.7s-2.11-4.7-4.7-4.7-4.7,2.11-4.7,4.7,2.11,4.7,4.7,4.7ZM151.3,221.36c1.73,0,3.13,1.41,3.13,3.13s-1.41,3.13-3.13,3.13-3.14-1.41-3.14-3.13,1.41-3.13,3.14-3.13Z"/>
              <g class="cls-6">
                <path class="cls-5" d="M151.3,230.89c3.52,0,6.39-2.87,6.39-6.39s-2.87-6.39-6.39-6.39-6.39,2.87-6.39,6.39,2.87,6.39,6.39,6.39ZM151.3,220.24c2.35,0,4.26,1.91,4.26,4.26s-1.91,4.26-4.26,4.26-4.26-1.91-4.26-4.26,1.91-4.26,4.26-4.26Z"/>
              </g>
              <g class="cls-1">
                <path class="cls-5" d="M151.3,233.18c4.79,0,8.68-3.89,8.68-8.68s-3.89-8.68-8.68-8.68-8.68,3.89-8.68,8.68,3.89,8.68,8.68,8.68ZM151.3,218.71c3.19,0,5.79,2.6,5.79,5.79s-2.6,5.79-5.79,5.79-5.79-2.6-5.79-5.79,2.6-5.79,5.79-5.79Z"/>
              </g>
            </g>
            <g>
              <path class="cls-5" d="M216.59,264.71c2.59,0,4.7-2.11,4.7-4.7s-2.11-4.7-4.7-4.7-4.7,2.11-4.7,4.7,2.11,4.7,4.7,4.7ZM216.59,256.87c1.73,0,3.13,1.41,3.13,3.13s-1.41,3.13-3.13,3.13-3.14-1.41-3.14-3.13,1.41-3.13,3.14-3.13Z"/>
              <g class="cls-6">
                <path class="cls-5" d="M216.59,266.39c3.52,0,6.39-2.87,6.39-6.39s-2.87-6.39-6.39-6.39-6.39,2.87-6.39,6.39,2.87,6.39,6.39,6.39ZM216.59,255.75c2.35,0,4.26,1.91,4.26,4.26s-1.91,4.26-4.26,4.26-4.26-1.91-4.26-4.26,1.91-4.26,4.26-4.26Z"/>
              </g>
              <g class="cls-1">
                <path class="cls-5" d="M216.59,268.69c4.79,0,8.68-3.89,8.68-8.68s-3.89-8.68-8.68-8.68-8.68,3.89-8.68,8.68,3.89,8.68,8.68,8.68ZM216.59,254.22c3.19,0,5.79,2.6,5.79,5.79s-2.6,5.79-5.79,5.79-5.79-2.6-5.79-5.79,2.6-5.79,5.79-5.79Z"/>
              </g>
            </g>
            <g>
              <path class="cls-5" d="M268.13,286.47c2.59,0,4.7-2.11,4.7-4.7s-2.11-4.7-4.7-4.7-4.7,2.11-4.7,4.7,2.11,4.7,4.7,4.7ZM268.13,278.63c1.73,0,3.13,1.41,3.13,3.13s-1.41,3.13-3.13,3.13-3.14-1.41-3.14-3.13,1.41-3.13,3.14-3.13Z"/>
              <g class="cls-6">
                <path class="cls-5" d="M268.13,288.16c3.52,0,6.39-2.87,6.39-6.39s-2.87-6.39-6.39-6.39-6.39,2.87-6.39,6.39,2.87,6.39,6.39,6.39ZM268.13,277.51c2.35,0,4.26,1.91,4.26,4.26s-1.91,4.26-4.26,4.26-4.26-1.91-4.26-4.26,1.91-4.26,4.26-4.26Z"/>
              </g>
              <g class="cls-1">
                <path class="cls-5" d="M268.13,290.45c4.79,0,8.68-3.89,8.68-8.68s-3.89-8.68-8.68-8.68-8.68,3.89-8.68,8.68,3.89,8.68,8.68,8.68ZM268.13,275.98c3.19,0,5.79,2.6,5.79,5.79s-2.6,5.79-5.79,5.79-5.79-2.6-5.79-5.79,2.6-5.79,5.79-5.79Z"/>
              </g>
            </g>
            <g>
              <path class="cls-5" d="M278.44,267c2.59,0,4.7-2.11,4.7-4.7s-2.11-4.7-4.7-4.7-4.7,2.11-4.7,4.7,2.11,4.7,4.7,4.7ZM278.44,259.16c1.73,0,3.13,1.41,3.13,3.13s-1.41,3.13-3.13,3.13-3.14-1.41-3.14-3.13,1.41-3.13,3.14-3.13Z"/>
              <g class="cls-6">
                <path class="cls-5" d="M278.44,268.69c3.52,0,6.39-2.87,6.39-6.39s-2.87-6.39-6.39-6.39-6.39,2.87-6.39,6.39,2.87,6.39,6.39,6.39ZM278.44,258.04c2.35,0,4.26,1.91,4.26,4.26s-1.91,4.26-4.26,4.26-4.26-1.91-4.26-4.26,1.91-4.26,4.26-4.26Z"/>
              </g>
              <g class="cls-1">
                <path class="cls-5" d="M278.44,270.98c4.79,0,8.68-3.89,8.68-8.68s-3.89-8.68-8.68-8.68-8.68,3.89-8.68,8.68,3.89,8.68,8.68,8.68ZM278.44,256.51c3.19,0,5.79,2.6,5.79,5.79s-2.6,5.79-5.79,5.79-5.79-2.6-5.79-5.79,2.6-5.79,5.79-5.79Z"/>
              </g>
            </g>
            <g>
              <path class="cls-5" d="M325.4,236.07c2.59,0,4.7-2.11,4.7-4.7s-2.11-4.7-4.7-4.7-4.7,2.11-4.7,4.7,2.11,4.7,4.7,4.7ZM325.4,228.24c1.73,0,3.13,1.41,3.13,3.13s-1.41,3.13-3.13,3.13-3.14-1.41-3.14-3.13,1.41-3.13,3.14-3.13Z"/>
              <g class="cls-6">
                <path class="cls-5" d="M325.4,237.76c3.52,0,6.39-2.87,6.39-6.39s-2.87-6.39-6.39-6.39-6.39,2.87-6.39,6.39,2.87,6.39,6.39,6.39ZM325.4,227.11c2.35,0,4.26,1.91,4.26,4.26s-1.91,4.26-4.26,4.26-4.26-1.91-4.26-4.26,1.91-4.26,4.26-4.26Z"/>
              </g>
              <g class="cls-1">
                <path class="cls-5" d="M325.4,240.05c4.79,0,8.68-3.89,8.68-8.68s-3.89-8.68-8.68-8.68-8.68,3.89-8.68,8.68,3.89,8.68,8.68,8.68ZM325.4,225.58c3.19,0,5.79,2.6,5.79,5.79s-2.6,5.79-5.79,5.79-5.79-2.6-5.79-5.79,2.6-5.79,5.79-5.79Z"/>
              </g>
            </g>
            <g>
              <path class="cls-5" d="M321.01,272.72c2.59-.11,4.61-2.3,4.5-4.89-.11-2.59-2.3-4.61-4.89-4.5-2.59.11-4.61,2.3-4.5,4.89.11,2.59,2.3,4.61,4.89,4.5ZM320.69,264.89c1.73-.07,3.19,1.28,3.26,3,.07,1.73-1.28,3.19-3,3.26-1.73.07-3.19-1.28-3.26-3-.07-1.73,1.28-3.19,3-3.26Z"/>
              <g class="cls-6">
                <path class="cls-5" d="M321.08,274.41c3.52-.15,6.27-3.13,6.12-6.65-.15-3.52-3.13-6.27-6.65-6.12-3.52.15-6.27,3.13-6.12,6.65.15,3.52,3.13,6.27,6.65,6.12ZM320.64,263.77c2.35-.1,4.34,1.73,4.43,4.08.1,2.35-1.73,4.34-4.08,4.43-2.35.1-4.34-1.73-4.43-4.08-.1-2.35,1.73-4.34,4.08-4.43Z"/>
              </g>
              <g class="cls-1">
                <path class="cls-5" d="M321.18,276.7c4.78-.2,8.51-4.25,8.31-9.03s-4.25-8.51-9.03-8.31c-4.78.2-8.51,4.25-8.32,9.03s4.25,8.51,9.03,8.31ZM320.58,262.24c3.19-.13,5.89,2.36,6.02,5.54.13,3.19-2.36,5.89-5.54,6.02-3.19.13-5.89-2.36-6.02-5.54-.13-3.19,2.36-5.89,5.54-6.02Z"/>
              </g>
            </g>
            <g>
              <path class="cls-5" d="M402.33,269.28c2.59-.11,4.61-2.3,4.5-4.89-.11-2.59-2.3-4.61-4.89-4.5-2.59.11-4.61,2.3-4.5,4.89.11,2.59,2.3,4.61,4.89,4.5ZM402.01,261.45c1.73-.07,3.19,1.28,3.26,3,.07,1.73-1.28,3.19-3,3.26-1.73.07-3.19-1.28-3.26-3-.07-1.73,1.28-3.19,3-3.26Z"/>
              <g class="cls-6">
                <path class="cls-5" d="M402.4,270.97c3.52-.15,6.27-3.13,6.12-6.65-.15-3.52-3.13-6.27-6.65-6.12-3.52.15-6.27,3.13-6.12,6.65.15,3.52,3.13,6.27,6.65,6.12ZM401.96,260.33c2.35-.1,4.34,1.73,4.43,4.08.1,2.35-1.73,4.34-4.08,4.43-2.35.1-4.34-1.73-4.43-4.08-.1-2.35,1.73-4.34,4.08-4.43Z"/>
              </g>
              <g class="cls-1">
                <path class="cls-5" d="M402.5,273.26c4.78-.2,8.51-4.25,8.31-9.03-.2-4.78-4.25-8.51-9.03-8.31s-8.51,4.25-8.32,9.03c.2,4.78,4.25,8.51,9.03,8.31ZM401.9,258.8c3.19-.13,5.89,2.36,6.02,5.54.13,3.19-2.36,5.89-5.54,6.02-3.19.13-5.89-2.36-6.02-5.54-.13-3.19,2.36-5.89,5.54-6.02Z"/>
              </g>
            </g>
            <g>
              <path class="cls-5" d="M384.01,329.99c2.59-.11,4.61-2.3,4.5-4.89-.11-2.59-2.3-4.61-4.89-4.5-2.59.11-4.61,2.3-4.5,4.89.11,2.59,2.3,4.61,4.89,4.5ZM383.68,322.16c1.73-.07,3.19,1.28,3.26,3,.07,1.73-1.28,3.19-3,3.26-1.73.07-3.19-1.28-3.26-3-.07-1.73,1.28-3.19,3-3.26Z"/>
              <g class="cls-6">
                <path class="cls-5" d="M384.08,331.68c3.52-.15,6.27-3.13,6.12-6.65-.15-3.52-3.13-6.27-6.65-6.12-3.52.15-6.27,3.13-6.12,6.65.15,3.52,3.13,6.27,6.65,6.12ZM383.64,321.04c2.35-.1,4.34,1.73,4.43,4.08.1,2.35-1.73,4.34-4.08,4.43-2.35.1-4.34-1.73-4.43-4.08-.1-2.35,1.73-4.34,4.08-4.43Z"/>
              </g>
              <g class="cls-1">
                <path class="cls-5" d="M384.17,333.97c4.78-.2,8.51-4.25,8.31-9.03-.2-4.78-4.25-8.51-9.03-8.31-4.78.2-8.51,4.25-8.32,9.03.2,4.78,4.25,8.51,9.03,8.31ZM383.58,319.51c3.19-.13,5.89,2.36,6.02,5.54.13,3.19-2.36,5.89-5.54,6.02-3.19.13-5.89-2.36-6.02-5.54-.13-3.19,2.36-5.89,5.54-6.02Z"/>
              </g>
            </g>
            <g>
              <path class="cls-5" d="M401.19,462.86c2.59-.11,4.61-2.3,4.5-4.89-.11-2.59-2.3-4.61-4.89-4.5-2.59.11-4.61,2.3-4.5,4.89s2.3,4.61,4.89,4.5ZM400.87,455.03c1.73-.07,3.19,1.28,3.26,3,.07,1.73-1.28,3.19-3,3.26-1.73.07-3.19-1.28-3.26-3-.07-1.73,1.28-3.19,3-3.26Z"/>
              <g class="cls-6">
                <path class="cls-5" d="M401.26,464.54c3.52-.15,6.27-3.13,6.12-6.65-.15-3.52-3.13-6.27-6.65-6.12-3.52.15-6.27,3.13-6.12,6.65.15,3.52,3.13,6.27,6.65,6.12ZM400.82,453.9c2.35-.1,4.34,1.73,4.43,4.08.1,2.35-1.73,4.34-4.08,4.43-2.35.1-4.34-1.73-4.43-4.08-.1-2.35,1.73-4.34,4.08-4.43Z"/>
              </g>
              <g class="cls-1">
                <path class="cls-5" d="M401.35,466.83c4.78-.2,8.51-4.25,8.31-9.03s-4.25-8.51-9.03-8.31c-4.78.2-8.51,4.25-8.32,9.03.2,4.78,4.25,8.51,9.03,8.31ZM400.76,452.38c3.19-.13,5.89,2.36,6.02,5.54.13,3.19-2.36,5.89-5.54,6.02-3.19.13-5.89-2.36-6.02-5.54-.13-3.19,2.36-5.89,5.54-6.02Z"/>
              </g>
            </g>
            <g>
              <path class="cls-5" d="M401.19,367.79c2.59-.11,4.61-2.3,4.5-4.89-.11-2.59-2.3-4.61-4.89-4.5s-4.61,2.3-4.5,4.89c.11,2.59,2.3,4.61,4.89,4.5ZM400.87,359.96c1.73-.07,3.19,1.28,3.26,3,.07,1.73-1.28,3.19-3,3.26-1.73.07-3.19-1.28-3.26-3-.07-1.73,1.28-3.19,3-3.26Z"/>
              <g class="cls-6">
                <path class="cls-5" d="M401.26,369.48c3.52-.15,6.27-3.13,6.12-6.65-.15-3.52-3.13-6.27-6.65-6.12s-6.27,3.13-6.12,6.65c.15,3.52,3.13,6.27,6.65,6.12ZM400.82,358.83c2.35-.1,4.34,1.73,4.43,4.08.1,2.35-1.73,4.34-4.08,4.43-2.35.1-4.34-1.73-4.43-4.08-.1-2.35,1.73-4.34,4.08-4.43Z"/>
              </g>
              <g class="cls-1">
                <path class="cls-5" d="M401.35,371.76c4.78-.2,8.51-4.25,8.31-9.03s-4.25-8.51-9.03-8.31-8.51,4.25-8.32,9.03c.2,4.78,4.25,8.51,9.03,8.31ZM400.76,357.31c3.19-.13,5.89,2.36,6.02,5.54.13,3.19-2.36,5.89-5.54,6.02-3.19.13-5.89-2.36-6.02-5.54-.13-3.19,2.36-5.89,5.54-6.02Z"/>
              </g>
            </g>
            <g>
              <path class="cls-5" d="M445.86,376.95c2.59-.11,4.61-2.3,4.5-4.89-.11-2.59-2.3-4.61-4.89-4.5-2.59.11-4.61,2.3-4.5,4.89s2.3,4.61,4.89,4.5ZM445.54,369.12c1.73-.07,3.19,1.28,3.26,3,.07,1.73-1.28,3.19-3,3.26-1.73.07-3.19-1.28-3.26-3s1.28-3.19,3-3.26Z"/>
              <g class="cls-6">
                <path class="cls-5" d="M445.93,378.64c3.52-.15,6.27-3.13,6.12-6.65s-3.13-6.27-6.65-6.12c-3.52.15-6.27,3.13-6.12,6.65.15,3.52,3.13,6.27,6.65,6.12ZM445.49,368c2.35-.1,4.34,1.73,4.43,4.08.1,2.35-1.73,4.34-4.08,4.43-2.35.1-4.34-1.73-4.43-4.08-.1-2.35,1.73-4.34,4.08-4.43Z"/>
              </g>
              <g class="cls-1">
                <path class="cls-5" d="M446.02,380.93c4.78-.2,8.51-4.25,8.31-9.03-.2-4.78-4.25-8.51-9.03-8.31s-8.51,4.25-8.32,9.03c.2,4.78,4.25,8.51,9.03,8.31ZM445.43,366.47c3.19-.13,5.89,2.36,6.02,5.54.13,3.19-2.36,5.89-5.54,6.02-3.19.13-5.89-2.36-6.02-5.54-.13-3.19,2.36-5.89,5.54-6.02Z"/>
              </g>
            </g>
            <g>
              <path class="cls-5" d="M495.11,378.1c2.59-.11,4.61-2.3,4.5-4.89-.11-2.59-2.3-4.61-4.89-4.5-2.59.11-4.61,2.3-4.5,4.89.11,2.59,2.3,4.61,4.89,4.5ZM494.79,370.27c1.73-.07,3.19,1.28,3.26,3,.07,1.73-1.28,3.19-3,3.26-1.73.07-3.19-1.28-3.26-3-.07-1.73,1.28-3.19,3-3.26Z"/>
              <g class="cls-6">
                <path class="cls-5" d="M495.18,379.78c3.52-.15,6.27-3.13,6.12-6.65-.15-3.52-3.13-6.27-6.65-6.12-3.52.15-6.27,3.13-6.12,6.65.15,3.52,3.13,6.27,6.65,6.12ZM494.74,369.14c2.35-.1,4.34,1.73,4.43,4.08.1,2.35-1.73,4.34-4.08,4.43-2.35.1-4.34-1.73-4.43-4.08-.1-2.35,1.73-4.34,4.08-4.43Z"/>
              </g>
              <g class="cls-1">
                <path class="cls-5" d="M495.28,382.07c4.78-.2,8.51-4.25,8.31-9.03-.2-4.78-4.25-8.51-9.03-8.31-4.78.2-8.51,4.25-8.32,9.03s4.25,8.51,9.03,8.31ZM494.68,367.62c3.19-.13,5.89,2.36,6.02,5.54.13,3.19-2.36,5.89-5.54,6.02-3.19.13-5.89-2.36-6.02-5.54-.13-3.19,2.36-5.89,5.54-6.02Z"/>
              </g>
            </g>
            <g>
              <path class="cls-5" d="M524.89,351.75c2.59-.11,4.61-2.3,4.5-4.89-.11-2.59-2.3-4.61-4.89-4.5-2.59.11-4.61,2.3-4.5,4.89.11,2.59,2.3,4.61,4.89,4.5ZM524.57,343.92c1.73-.07,3.19,1.28,3.26,3,.07,1.73-1.28,3.19-3,3.26-1.73.07-3.19-1.28-3.26-3-.07-1.73,1.28-3.19,3-3.26Z"/>
              <g class="cls-6">
                <path class="cls-5" d="M524.96,353.44c3.52-.15,6.27-3.13,6.12-6.65-.15-3.52-3.13-6.27-6.65-6.12-3.52.15-6.27,3.13-6.12,6.65.15,3.52,3.13,6.27,6.65,6.12ZM524.52,342.8c2.35-.1,4.34,1.73,4.43,4.08.1,2.35-1.73,4.34-4.08,4.43-2.35.1-4.34-1.73-4.43-4.08-.1-2.35,1.73-4.34,4.08-4.43Z"/>
              </g>
              <g class="cls-1">
                <path class="cls-5" d="M525.06,355.73c4.78-.2,8.51-4.25,8.31-9.03s-4.25-8.51-9.03-8.31c-4.78.2-8.51,4.25-8.32,9.03s4.25,8.51,9.03,8.31ZM524.46,341.27c3.19-.13,5.89,2.36,6.02,5.54.13,3.19-2.36,5.89-5.54,6.02-3.19.13-5.89-2.36-6.02-5.54-.13-3.19,2.36-5.89,5.54-6.02Z"/>
              </g>
            </g>
            <g>
              <path class="cls-5" d="M539.78,309.37c2.59-.11,4.61-2.3,4.5-4.89-.11-2.59-2.3-4.61-4.89-4.5-2.59.11-4.61,2.3-4.5,4.89.11,2.59,2.3,4.61,4.89,4.5ZM539.46,301.54c1.73-.07,3.19,1.28,3.26,3,.07,1.73-1.28,3.19-3,3.26-1.73.07-3.19-1.28-3.26-3-.07-1.73,1.28-3.19,3-3.26Z"/>
              <g class="cls-6">
                <path class="cls-5" d="M539.85,311.06c3.52-.15,6.27-3.13,6.12-6.65-.15-3.52-3.13-6.27-6.65-6.12-3.52.15-6.27,3.13-6.12,6.65.15,3.52,3.13,6.27,6.65,6.12ZM539.41,300.42c2.35-.1,4.34,1.73,4.43,4.08.1,2.35-1.73,4.34-4.08,4.43-2.35.1-4.34-1.73-4.43-4.08-.1-2.35,1.73-4.34,4.08-4.43Z"/>
              </g>
              <g class="cls-1">
                <path class="cls-5" d="M539.95,313.35c4.78-.2,8.51-4.25,8.31-9.03s-4.25-8.51-9.03-8.31c-4.78.2-8.51,4.25-8.32,9.03.2,4.78,4.25,8.51,9.03,8.31ZM539.35,298.89c3.19-.13,5.89,2.36,6.02,5.54.13,3.19-2.36,5.89-5.54,6.02-3.19.13-5.89-2.36-6.02-5.54-.13-3.19,2.36-5.89,5.54-6.02Z"/>
              </g>
            </g>
            <g>
              <path class="cls-5" d="M505.42,266.99c2.59-.11,4.61-2.3,4.5-4.89-.11-2.59-2.3-4.61-4.89-4.5s-4.61,2.3-4.5,4.89c.11,2.59,2.3,4.61,4.89,4.5ZM505.1,259.16c1.73-.07,3.19,1.28,3.26,3,.07,1.73-1.28,3.19-3,3.26-1.73.07-3.19-1.28-3.26-3-.07-1.73,1.28-3.19,3-3.26Z"/>
              <g class="cls-6">
                <path class="cls-5" d="M505.49,268.68c3.52-.15,6.27-3.13,6.12-6.65s-3.13-6.27-6.65-6.12c-3.52.15-6.27,3.13-6.12,6.65.15,3.52,3.13,6.27,6.65,6.12ZM505.05,258.04c2.35-.1,4.34,1.73,4.43,4.08.1,2.35-1.73,4.34-4.08,4.43-2.35.1-4.34-1.73-4.43-4.08-.1-2.35,1.73-4.34,4.08-4.43Z"/>
              </g>
              <g class="cls-1">
                <path class="cls-5" d="M505.58,270.97c4.78-.2,8.51-4.25,8.31-9.03-.2-4.78-4.25-8.51-9.03-8.31s-8.51,4.25-8.32,9.03c.2,4.78,4.25,8.51,9.03,8.31ZM504.99,256.51c3.19-.13,5.89,2.36,6.02,5.54.13,3.19-2.36,5.89-5.54,6.02-3.19.13-5.89-2.36-6.02-5.54-.13-3.19,2.36-5.89,5.54-6.02Z"/>
              </g>
            </g>
            <g>
              <path class="cls-5" d="M501.98,226.9c2.59-.11,4.61-2.3,4.5-4.89-.11-2.59-2.3-4.61-4.89-4.5-2.59.11-4.61,2.3-4.5,4.89.11,2.59,2.3,4.61,4.89,4.5ZM501.66,219.07c1.73-.07,3.19,1.28,3.26,3s-1.28,3.19-3,3.26c-1.73.07-3.19-1.28-3.26-3-.07-1.73,1.28-3.19,3-3.26Z"/>
              <g class="cls-6">
                <path class="cls-5" d="M502.05,228.59c3.52-.15,6.27-3.13,6.12-6.65-.15-3.52-3.13-6.27-6.65-6.12-3.52.15-6.27,3.13-6.12,6.65.15,3.52,3.13,6.27,6.65,6.12ZM501.61,217.95c2.35-.1,4.34,1.73,4.43,4.08.1,2.35-1.73,4.34-4.08,4.43-2.35.1-4.34-1.73-4.43-4.08-.1-2.35,1.73-4.34,4.08-4.43Z"/>
              </g>
              <g class="cls-1">
                <path class="cls-5" d="M502.15,230.88c4.78-.2,8.51-4.25,8.31-9.03-.2-4.78-4.25-8.51-9.03-8.31-4.78.2-8.51,4.25-8.32,9.03.2,4.78,4.25,8.51,9.03,8.31ZM501.55,216.42c3.19-.13,5.89,2.36,6.02,5.54.13,3.19-2.36,5.89-5.54,6.02-3.19.13-5.89-2.36-6.02-5.54-.13-3.19,2.36-5.89,5.54-6.02Z"/>
              </g>
            </g>
            <g>
              <path class="cls-5" d="M447,167.34c2.59-.11,4.61-2.3,4.5-4.89-.11-2.59-2.3-4.61-4.89-4.5-2.59.11-4.61,2.3-4.5,4.89s2.3,4.61,4.89,4.5ZM446.68,159.51c1.73-.07,3.19,1.28,3.26,3,.07,1.73-1.28,3.19-3,3.26-1.73.07-3.19-1.28-3.26-3-.07-1.73,1.28-3.19,3-3.26Z"/>
              <g class="cls-6">
                <path class="cls-5" d="M447.07,169.03c3.52-.15,6.27-3.13,6.12-6.65-.15-3.52-3.13-6.27-6.65-6.12-3.52.15-6.27,3.13-6.12,6.65.15,3.52,3.13,6.27,6.65,6.12ZM446.64,158.39c2.35-.1,4.34,1.73,4.43,4.08.1,2.35-1.73,4.34-4.08,4.43-2.35.1-4.34-1.73-4.43-4.08-.1-2.35,1.73-4.34,4.08-4.43Z"/>
              </g>
              <g class="cls-1">
                <path class="cls-5" d="M447.17,171.32c4.78-.2,8.51-4.25,8.31-9.03s-4.25-8.51-9.03-8.31-8.51,4.25-8.32,9.03,4.25,8.51,9.03,8.31ZM446.57,156.86c3.19-.13,5.89,2.36,6.02,5.54.13,3.19-2.36,5.89-5.54,6.02-3.19.13-5.89-2.36-6.02-5.54-.13-3.19,2.36-5.89,5.54-6.02Z"/>
              </g>
            </g>
            <g>
              <path class="cls-5" d="M410.35,116.95c2.59-.11,4.61-2.3,4.5-4.89-.11-2.59-2.3-4.61-4.89-4.5-2.59.11-4.61,2.3-4.5,4.89.11,2.59,2.3,4.61,4.89,4.5ZM410.03,109.12c1.73-.07,3.19,1.28,3.26,3s-1.28,3.19-3,3.26c-1.73.07-3.19-1.28-3.26-3-.07-1.73,1.28-3.19,3-3.26Z"/>
              <g class="cls-6">
                <path class="cls-5" d="M410.42,118.63c3.52-.15,6.27-3.13,6.12-6.65-.15-3.52-3.13-6.27-6.65-6.12-3.52.15-6.27,3.13-6.12,6.65s3.13,6.27,6.65,6.12ZM409.98,107.99c2.35-.1,4.34,1.73,4.43,4.08.1,2.35-1.73,4.34-4.08,4.43-2.35.1-4.34-1.73-4.43-4.08-.1-2.35,1.73-4.34,4.08-4.43Z"/>
              </g>
              <g class="cls-1">
                <path class="cls-5" d="M410.52,120.92c4.78-.2,8.51-4.25,8.31-9.03s-4.25-8.51-9.03-8.31c-4.78.2-8.51,4.25-8.32,9.03s4.25,8.51,9.03,8.31ZM409.92,106.47c3.19-.13,5.89,2.36,6.02,5.54.13,3.19-2.36,5.89-5.54,6.02-3.19.13-5.89-2.36-6.02-5.54-.13-3.19,2.36-5.89,5.54-6.02Z"/>
              </g>
            </g>
            <g>
              <path class="cls-5" d="M528.33,144.44c2.59-.11,4.61-2.3,4.5-4.89-.11-2.59-2.3-4.61-4.89-4.5-2.59.11-4.61,2.3-4.5,4.89.11,2.59,2.3,4.61,4.89,4.5ZM528,136.61c1.73-.07,3.19,1.28,3.26,3s-1.28,3.19-3,3.26c-1.73.07-3.19-1.28-3.26-3-.07-1.73,1.28-3.19,3-3.26Z"/>
              <g class="cls-6">
                <path class="cls-5" d="M528.4,146.12c3.52-.15,6.27-3.13,6.12-6.65-.15-3.52-3.13-6.27-6.65-6.12-3.52.15-6.27,3.13-6.12,6.65s3.13,6.27,6.65,6.12ZM527.96,135.48c2.35-.1,4.34,1.73,4.43,4.08.1,2.35-1.73,4.34-4.08,4.43-2.35.1-4.34-1.73-4.43-4.08-.1-2.35,1.73-4.34,4.08-4.43Z"/>
              </g>
              <g class="cls-1">
                <path class="cls-5" d="M528.49,148.41c4.78-.2,8.51-4.25,8.31-9.03-.2-4.78-4.25-8.51-9.03-8.31-4.78.2-8.51,4.25-8.32,9.03s4.25,8.51,9.03,8.31ZM527.9,133.96c3.19-.13,5.89,2.36,6.02,5.54.13,3.19-2.36,5.89-5.54,6.02-3.19.13-5.89-2.36-6.02-5.54-.13-3.19,2.36-5.89,5.54-6.02Z"/>
              </g>
            </g>
            <g>
              <path class="cls-5" d="M488.24,157.04c2.59-.11,4.61-2.3,4.5-4.89-.11-2.59-2.3-4.61-4.89-4.5-2.59.11-4.61,2.3-4.5,4.89.11,2.59,2.3,4.61,4.89,4.5ZM487.92,149.21c1.73-.07,3.19,1.28,3.26,3,.07,1.73-1.28,3.19-3,3.26-1.73.07-3.19-1.28-3.26-3s1.28-3.19,3-3.26Z"/>
              <g class="cls-6">
                <path class="cls-5" d="M488.31,158.72c3.52-.15,6.27-3.13,6.12-6.65-.15-3.52-3.13-6.27-6.65-6.12-3.52.15-6.27,3.13-6.12,6.65.15,3.52,3.13,6.27,6.65,6.12ZM487.87,148.08c2.35-.1,4.34,1.73,4.43,4.08.1,2.35-1.73,4.34-4.08,4.43-2.35.1-4.34-1.73-4.43-4.08-.1-2.35,1.73-4.34,4.08-4.43Z"/>
              </g>
              <g class="cls-1">
                <path class="cls-5" d="M488.4,161.01c4.78-.2,8.51-4.25,8.31-9.03-.2-4.78-4.25-8.51-9.03-8.31s-8.51,4.25-8.32,9.03c.2,4.78,4.25,8.51,9.03,8.31ZM487.81,146.56c3.19-.13,5.89,2.36,6.02,5.54.13,3.19-2.36,5.89-5.54,6.02-3.19.13-5.89-2.36-6.02-5.54-.13-3.19,2.36-5.89,5.54-6.02Z"/>
              </g>
            </g>
            <g>
              <path class="cls-5" d="M495.11,182.23c2.59-.11,4.61-2.3,4.5-4.89-.11-2.59-2.3-4.61-4.89-4.5-2.59.11-4.61,2.3-4.5,4.89s2.3,4.61,4.89,4.5ZM494.79,174.4c1.73-.07,3.19,1.28,3.26,3,.07,1.73-1.28,3.19-3,3.26-1.73.07-3.19-1.28-3.26-3-.07-1.73,1.28-3.19,3-3.26Z"/>
              <g class="cls-6">
                <path class="cls-5" d="M495.18,183.92c3.52-.15,6.27-3.13,6.12-6.65-.15-3.52-3.13-6.27-6.65-6.12-3.52.15-6.27,3.13-6.12,6.65.15,3.52,3.13,6.27,6.65,6.12ZM494.74,173.28c2.35-.1,4.34,1.73,4.43,4.08.1,2.35-1.73,4.34-4.08,4.43-2.35.1-4.34-1.73-4.43-4.08-.1-2.35,1.73-4.34,4.08-4.43Z"/>
              </g>
              <g class="cls-1">
                <path class="cls-5" d="M495.28,186.21c4.78-.2,8.51-4.25,8.31-9.03s-4.25-8.51-9.03-8.31c-4.78.2-8.51,4.25-8.32,9.03s4.25,8.51,9.03,8.31ZM494.68,171.75c3.19-.13,5.89,2.36,6.02,5.54.13,3.19-2.36,5.89-5.54,6.02-3.19.13-5.89-2.36-6.02-5.54-.13-3.19,2.36-5.89,5.54-6.02Z"/>
              </g>
            </g>
            <g>
              <path class="cls-5" d="M402.33,99.77c2.59-.11,4.61-2.3,4.5-4.89-.11-2.59-2.3-4.61-4.89-4.5-2.59.11-4.61,2.3-4.5,4.89.11,2.59,2.3,4.61,4.89,4.5ZM402.01,91.94c1.73-.07,3.19,1.28,3.26,3,.07,1.73-1.28,3.19-3,3.26-1.73.07-3.19-1.28-3.26-3-.07-1.73,1.28-3.19,3-3.26Z"/>
              <g class="cls-6">
                <path class="cls-5" d="M402.4,101.45c3.52-.15,6.27-3.13,6.12-6.65-.15-3.52-3.13-6.27-6.65-6.12-3.52.15-6.27,3.13-6.12,6.65.15,3.52,3.13,6.27,6.65,6.12ZM401.96,90.81c2.35-.1,4.34,1.73,4.43,4.08.1,2.35-1.73,4.34-4.08,4.43-2.35.1-4.34-1.73-4.43-4.08-.1-2.35,1.73-4.34,4.08-4.43Z"/>
              </g>
              <g class="cls-1">
                <path class="cls-5" d="M402.5,103.74c4.78-.2,8.51-4.25,8.31-9.03-.2-4.78-4.25-8.51-9.03-8.31-4.78.2-8.51,4.25-8.32,9.03.2,4.78,4.25,8.51,9.03,8.31ZM401.9,89.29c3.19-.13,5.89,2.36,6.02,5.54.13,3.19-2.36,5.89-5.54,6.02-3.19.13-5.89-2.36-6.02-5.54-.13-3.19,2.36-5.89,5.54-6.02Z"/>
              </g>
            </g>
            <g>
              <path class="cls-5" d="M476.79,110.07c2.59-.11,4.61-2.3,4.5-4.89-.11-2.59-2.3-4.61-4.89-4.5-2.59.11-4.61,2.3-4.5,4.89s2.3,4.61,4.89,4.5ZM476.46,102.24c1.73-.07,3.19,1.28,3.26,3,.07,1.73-1.28,3.19-3,3.26-1.73.07-3.19-1.28-3.26-3-.07-1.73,1.28-3.19,3-3.26Z"/>
              <g class="cls-6">
                <path class="cls-5" d="M476.85,111.76c3.52-.15,6.27-3.13,6.12-6.65-.15-3.52-3.13-6.27-6.65-6.12-3.52.15-6.27,3.13-6.12,6.65.15,3.52,3.13,6.27,6.65,6.12ZM476.42,101.12c2.35-.1,4.34,1.73,4.43,4.08.1,2.35-1.73,4.34-4.08,4.43-2.35.1-4.34-1.73-4.43-4.08-.1-2.35,1.73-4.34,4.08-4.43Z"/>
              </g>
              <g class="cls-1">
                <path class="cls-5" d="M476.95,114.05c4.78-.2,8.51-4.25,8.31-9.03s-4.25-8.51-9.03-8.31-8.51,4.25-8.32,9.03,4.25,8.51,9.03,8.31ZM476.35,99.59c3.19-.13,5.89,2.36,6.02,5.54.13,3.19-2.36,5.89-5.54,6.02-3.19.13-5.89-2.36-6.02-5.54-.13-3.19,2.36-5.89,5.54-6.02Z"/>
              </g>
            </g>
            <g>
              <path class="cls-5" d="M361.1,218.89c2.59-.11,4.61-2.3,4.5-4.89-.11-2.59-2.3-4.61-4.89-4.5-2.59.11-4.61,2.3-4.5,4.89.11,2.59,2.3,4.61,4.89,4.5ZM360.78,211.06c1.73-.07,3.19,1.28,3.26,3,.07,1.73-1.28,3.19-3,3.26-1.73.07-3.19-1.28-3.26-3-.07-1.73,1.28-3.19,3-3.26Z"/>
              <g class="cls-6">
                <path class="cls-5" d="M361.17,220.57c3.52-.15,6.27-3.13,6.12-6.65-.15-3.52-3.13-6.27-6.65-6.12-3.52.15-6.27,3.13-6.12,6.65.15,3.52,3.13,6.27,6.65,6.12ZM360.73,209.93c2.35-.1,4.34,1.73,4.43,4.08.1,2.35-1.73,4.34-4.08,4.43-2.35.1-4.34-1.73-4.43-4.08-.1-2.35,1.73-4.34,4.08-4.43Z"/>
              </g>
              <g class="cls-1">
                <path class="cls-5" d="M361.26,222.86c4.78-.2,8.51-4.25,8.31-9.03s-4.25-8.51-9.03-8.31c-4.78.2-8.51,4.25-8.32,9.03s4.25,8.51,9.03,8.31ZM360.67,208.41c3.19-.13,5.89,2.36,6.02,5.54.13,3.19-2.36,5.89-5.54,6.02-3.19.13-5.89-2.36-6.02-5.54-.13-3.19,2.36-5.89,5.54-6.02Z"/>
              </g>
            </g>
            <g>
              <path class="cls-5" d="M299.25,194.83c2.59-.11,4.61-2.3,4.5-4.89-.11-2.59-2.3-4.61-4.89-4.5s-4.61,2.3-4.5,4.89c.11,2.59,2.3,4.61,4.89,4.5ZM298.93,187c1.73-.07,3.19,1.28,3.26,3,.07,1.73-1.28,3.19-3,3.26-1.73.07-3.19-1.28-3.26-3-.07-1.73,1.28-3.19,3-3.26Z"/>
              <g class="cls-6">
                <path class="cls-5" d="M299.32,196.52c3.52-.15,6.27-3.13,6.12-6.65-.15-3.52-3.13-6.27-6.65-6.12-3.52.15-6.27,3.13-6.12,6.65.15,3.52,3.13,6.27,6.65,6.12ZM298.88,185.88c2.35-.1,4.34,1.73,4.43,4.08.1,2.35-1.73,4.34-4.08,4.43-2.35.1-4.34-1.73-4.43-4.08-.1-2.35,1.73-4.34,4.08-4.43Z"/>
              </g>
              <g class="cls-1">
                <path class="cls-5" d="M299.41,198.81c4.78-.2,8.51-4.25,8.31-9.03-.2-4.78-4.25-8.51-9.03-8.31-4.78.2-8.51,4.25-8.32,9.03.2,4.78,4.25,8.51,9.03,8.31ZM298.82,184.35c3.19-.13,5.89,2.36,6.02,5.54.13,3.19-2.36,5.89-5.54,6.02-3.19.13-5.89-2.36-6.02-5.54-.13-3.19,2.36-5.89,5.54-6.02Z"/>
              </g>
            </g>
            <g>
              <path class="cls-5" d="M434.41,215.45c2.59-.11,4.61-2.3,4.5-4.89-.11-2.59-2.3-4.61-4.89-4.5-2.59.11-4.61,2.3-4.5,4.89s2.3,4.61,4.89,4.5ZM434.08,207.62c1.73-.07,3.19,1.28,3.26,3,.07,1.73-1.28,3.19-3,3.26-1.73.07-3.19-1.28-3.26-3-.07-1.73,1.28-3.19,3-3.26Z"/>
              <g class="cls-6">
                <path class="cls-5" d="M434.48,217.14c3.52-.15,6.27-3.13,6.12-6.65-.15-3.52-3.13-6.27-6.65-6.12-3.52.15-6.27,3.13-6.12,6.65.15,3.52,3.13,6.27,6.65,6.12ZM434.04,206.5c2.35-.1,4.34,1.73,4.43,4.08.1,2.35-1.73,4.34-4.08,4.43-2.35.1-4.34-1.73-4.43-4.08-.1-2.35,1.73-4.34,4.08-4.43Z"/>
              </g>
              <g class="cls-1">
                <path class="cls-5" d="M434.57,219.43c4.78-.2,8.51-4.25,8.31-9.03-.2-4.78-4.25-8.51-9.03-8.31-4.78.2-8.51,4.25-8.32,9.03s4.25,8.51,9.03,8.31ZM433.97,204.97c3.19-.13,5.89,2.36,6.02,5.54.13,3.19-2.36,5.89-5.54,6.02-3.19.13-5.89-2.36-6.02-5.54-.13-3.19,2.36-5.89,5.54-6.02Z"/>
              </g>
            </g>
            <g>
              <path class="cls-5" d="M510,193.69c2.59-.11,4.61-2.3,4.5-4.89-.11-2.59-2.3-4.61-4.89-4.5-2.59.11-4.61,2.3-4.5,4.89.11,2.59,2.3,4.61,4.89,4.5ZM509.68,185.86c1.73-.07,3.19,1.28,3.26,3,.07,1.73-1.28,3.19-3,3.26-1.73.07-3.19-1.28-3.26-3-.07-1.73,1.28-3.19,3-3.26Z"/>
              <g class="cls-6">
                <path class="cls-5" d="M510.07,195.37c3.52-.15,6.27-3.13,6.12-6.65-.15-3.52-3.13-6.27-6.65-6.12-3.52.15-6.27,3.13-6.12,6.65.15,3.52,3.13,6.27,6.65,6.12ZM509.63,184.73c2.35-.1,4.34,1.73,4.43,4.08.1,2.35-1.73,4.34-4.08,4.43-2.35.1-4.34-1.73-4.43-4.08-.1-2.35,1.73-4.34,4.08-4.43Z"/>
              </g>
              <g class="cls-1">
                <path class="cls-5" d="M510.17,197.66c4.78-.2,8.51-4.25,8.31-9.03s-4.25-8.51-9.03-8.31c-4.78.2-8.51,4.25-8.32,9.03.2,4.78,4.25,8.51,9.03,8.31ZM509.57,183.21c3.19-.13,5.89,2.36,6.02,5.54.13,3.19-2.36,5.89-5.54,6.02-3.19.13-5.89-2.36-6.02-5.54-.13-3.19,2.36-5.89,5.54-6.02Z"/>
              </g>
            </g>
            <g>
              <path class="cls-5" d="M540.93,176.51c2.59-.11,4.61-2.3,4.5-4.89-.11-2.59-2.3-4.61-4.89-4.5-2.59.11-4.61,2.3-4.5,4.89.11,2.59,2.3,4.61,4.89,4.5ZM540.6,168.68c1.73-.07,3.19,1.28,3.26,3s-1.28,3.19-3,3.26c-1.73.07-3.19-1.28-3.26-3-.07-1.73,1.28-3.19,3-3.26Z"/>
              <g class="cls-6">
                <path class="cls-5" d="M541,178.19c3.52-.15,6.27-3.13,6.12-6.65-.15-3.52-3.13-6.27-6.65-6.12-3.52.15-6.27,3.13-6.12,6.65.15,3.52,3.13,6.27,6.65,6.12ZM540.56,167.55c2.35-.1,4.34,1.73,4.43,4.08.1,2.35-1.73,4.34-4.08,4.43-2.35.1-4.34-1.73-4.43-4.08-.1-2.35,1.73-4.34,4.08-4.43Z"/>
              </g>
              <g class="cls-1">
                <path class="cls-5" d="M541.09,180.48c4.78-.2,8.51-4.25,8.31-9.03-.2-4.78-4.25-8.51-9.03-8.31-4.78.2-8.51,4.25-8.32,9.03.2,4.78,4.25,8.51,9.03,8.31ZM540.49,166.03c3.19-.13,5.89,2.36,6.02,5.54.13,3.19-2.36,5.89-5.54,6.02-3.19.13-5.89-2.36-6.02-5.54-.13-3.19,2.36-5.89,5.54-6.02Z"/>
              </g>
            </g>
            <g>
              <path class="cls-5" d="M451.59,412.46c2.59-.11,4.61-2.3,4.5-4.89-.11-2.59-2.3-4.61-4.89-4.5-2.59.11-4.61,2.3-4.5,4.89.11,2.59,2.3,4.61,4.89,4.5ZM451.26,404.63c1.73-.07,3.19,1.28,3.26,3,.07,1.73-1.28,3.19-3,3.26-1.73.07-3.19-1.28-3.26-3-.07-1.73,1.28-3.19,3-3.26Z"/>
              <g class="cls-6">
                <path class="cls-5" d="M451.66,414.15c3.52-.15,6.27-3.13,6.12-6.65-.15-3.52-3.13-6.27-6.65-6.12-3.52.15-6.27,3.13-6.12,6.65.15,3.52,3.13,6.27,6.65,6.12ZM451.22,403.5c2.35-.1,4.34,1.73,4.43,4.08.1,2.35-1.73,4.34-4.08,4.43-2.35.1-4.34-1.73-4.43-4.08-.1-2.35,1.73-4.34,4.08-4.43Z"/>
              </g>
              <g class="cls-1">
                <path class="cls-5" d="M451.75,416.43c4.78-.2,8.51-4.25,8.31-9.03-.2-4.78-4.25-8.51-9.03-8.31-4.78.2-8.51,4.25-8.32,9.03.2,4.78,4.25,8.51,9.03,8.31ZM451.15,401.98c3.19-.13,5.89,2.36,6.02,5.54.13,3.19-2.36,5.89-5.54,6.02-3.19.13-5.89-2.36-6.02-5.54-.13-3.19,2.36-5.89,5.54-6.02Z"/>
              </g>
            </g>
            <g>
              <path class="cls-5" d="M356.52,356.33c2.59-.11,4.61-2.3,4.5-4.89-.11-2.59-2.3-4.61-4.89-4.5-2.59.11-4.61,2.3-4.5,4.89.11,2.59,2.3,4.61,4.89,4.5ZM356.19,348.5c1.73-.07,3.19,1.28,3.26,3,.07,1.73-1.28,3.19-3,3.26-1.73.07-3.19-1.28-3.26-3-.07-1.73,1.28-3.19,3-3.26Z"/>
              <g class="cls-6">
                <path class="cls-5" d="M356.59,358.02c3.52-.15,6.27-3.13,6.12-6.65-.15-3.52-3.13-6.27-6.65-6.12-3.52.15-6.27,3.13-6.12,6.65.15,3.52,3.13,6.27,6.65,6.12ZM356.15,347.38c2.35-.1,4.34,1.73,4.43,4.08.1,2.35-1.73,4.34-4.08,4.43-2.35.1-4.34-1.73-4.43-4.08-.1-2.35,1.73-4.34,4.08-4.43Z"/>
              </g>
              <g class="cls-1">
                <path class="cls-5" d="M356.68,360.31c4.78-.2,8.51-4.25,8.31-9.03-.2-4.78-4.25-8.51-9.03-8.31-4.78.2-8.51,4.25-8.32,9.03.2,4.78,4.25,8.51,9.03,8.31ZM356.09,345.85c3.19-.13,5.89,2.36,6.02,5.54.13,3.19-2.36,5.89-5.54,6.02-3.19.13-5.89-2.36-6.02-5.54-.13-3.19,2.36-5.89,5.54-6.02Z"/>
              </g>
            </g>
            <g>
              <circle class="cls-5" cx="317.2" cy="74.45" r="3.92"/>
              <g class="cls-9">
                <circle class="cls-5" cx="317.2" cy="74.45" r="5.73"/>
              </g>
              <g class="cls-9">
                <path class="cls-5" d="M309.18,74.45c0,4.43,3.59,8.02,8.02,8.02s8.02-3.59,8.02-8.02-3.59-8.02-8.02-8.02-8.02,3.59-8.02,8.02Z"/>
              </g>
              <g class="cls-8">
                <circle class="cls-5" cx="317.2" cy="74.45" r="9.65"/>
              </g>
            </g>
            <g>
              <path class="cls-5" d="M324.74,93.92c0,2.16,1.75,3.92,3.92,3.92s3.92-1.75,3.92-3.92-1.75-3.92-3.92-3.92-3.92,1.75-3.92,3.92Z"/>
              <g class="cls-9">
                <path class="cls-5" d="M322.93,93.92c0,3.16,2.56,5.73,5.73,5.73s5.73-2.56,5.73-5.73-2.56-5.73-5.73-5.73-5.73,2.56-5.73,5.73Z"/>
              </g>
              <g class="cls-9">
                <path class="cls-5" d="M320.64,93.92c0,4.43,3.59,8.02,8.02,8.02s8.02-3.59,8.02-8.02-3.59-8.02-8.02-8.02-8.02,3.59-8.02,8.02Z"/>
              </g>
              <g class="cls-8">
                <circle class="cls-5" cx="328.65" cy="93.92" r="9.65"/>
              </g>
            </g>
            <g>
              <path class="cls-5" d="M422.09,140.88c0,2.16,1.75,3.92,3.92,3.92s3.92-1.75,3.92-3.92-1.75-3.92-3.92-3.92-3.92,1.75-3.92,3.92Z"/>
              <g class="cls-9">
                <path class="cls-5" d="M420.29,140.88c0,3.16,2.56,5.73,5.73,5.73s5.73-2.56,5.73-5.73-2.56-5.73-5.73-5.73-5.73,2.56-5.73,5.73Z"/>
              </g>
              <g class="cls-9">
                <path class="cls-5" d="M417.99,140.88c0,4.43,3.59,8.02,8.02,8.02s8.02-3.59,8.02-8.02-3.59-8.02-8.02-8.02-8.02,3.59-8.02,8.02Z"/>
              </g>
              <g class="cls-8">
                <path class="cls-5" d="M416.37,140.88c0,5.33,4.32,9.65,9.65,9.65s9.65-4.32,9.65-9.65-4.32-9.65-9.65-9.65-9.65,4.32-9.65,9.65Z"/>
              </g>
            </g>
            <g>
              <path class="cls-5" d="M497.69,109.96c0,2.16,1.75,3.92,3.92,3.92s3.92-1.75,3.92-3.92-1.75-3.92-3.92-3.92-3.92,1.75-3.92,3.92Z"/>
              <g class="cls-9">
                <path class="cls-5" d="M495.88,109.96c0,3.16,2.56,5.73,5.73,5.73s5.73-2.56,5.73-5.73-2.56-5.73-5.73-5.73-5.73,2.56-5.73,5.73Z"/>
              </g>
              <g class="cls-9">
                <path class="cls-5" d="M493.59,109.96c0,4.43,3.59,8.02,8.02,8.02s8.02-3.59,8.02-8.02-3.59-8.02-8.02-8.02-8.02,3.59-8.02,8.02Z"/>
              </g>
              <g class="cls-8">
                <circle class="cls-5" cx="501.61" cy="109.96" r="9.65"/>
              </g>
            </g>
            <g>
              <circle class="cls-5" cx="432.88" cy="105.38" r="3.92"/>
              <g class="cls-9">
                <circle class="cls-5" cx="432.88" cy="105.38" r="5.73"/>
              </g>
              <g class="cls-9">
                <path class="cls-5" d="M424.87,105.38c0,4.43,3.59,8.02,8.02,8.02s8.02-3.59,8.02-8.02-3.59-8.02-8.02-8.02-8.02,3.59-8.02,8.02Z"/>
              </g>
              <g class="cls-8">
                <circle class="cls-5" cx="432.88" cy="105.38" r="9.65"/>
              </g>
            </g>
            <g>
              <path class="cls-5" d="M375.13,108.81c0,2.16,1.75,3.92,3.92,3.92s3.92-1.75,3.92-3.92-1.75-3.92-3.92-3.92-3.92,1.75-3.92,3.92Z"/>
              <g class="cls-9">
                <path class="cls-5" d="M373.32,108.81c0,3.16,2.56,5.73,5.73,5.73s5.73-2.56,5.73-5.73-2.56-5.73-5.73-5.73-5.73,2.56-5.73,5.73Z"/>
              </g>
              <g class="cls-9">
                <path class="cls-5" d="M371.03,108.81c0,4.43,3.59,8.02,8.02,8.02s8.02-3.59,8.02-8.02-3.59-8.02-8.02-8.02-8.02,3.59-8.02,8.02Z"/>
              </g>
              <g class="cls-8">
                <circle class="cls-5" cx="379.05" cy="108.81" r="9.65"/>
              </g>
            </g>
            <g>
              <path class="cls-5" d="M409.49,76.74c0,2.16,1.75,3.92,3.92,3.92s3.92-1.75,3.92-3.92-1.75-3.92-3.92-3.92-3.92,1.75-3.92,3.92Z"/>
              <g class="cls-9">
                <path class="cls-5" d="M407.69,76.74c0,3.16,2.56,5.73,5.73,5.73s5.73-2.56,5.73-5.73-2.56-5.73-5.73-5.73-5.73,2.56-5.73,5.73Z"/>
              </g>
              <g class="cls-9">
                <path class="cls-5" d="M405.4,76.74c0,4.43,3.59,8.02,8.02,8.02s8.02-3.59,8.02-8.02-3.59-8.02-8.02-8.02-8.02,3.59-8.02,8.02Z"/>
              </g>
              <g class="cls-8">
                <circle class="cls-5" cx="413.41" cy="76.74" r="9.65"/>
              </g>
            </g>
            <g>
              <path class="cls-5" d="M260.59,131.72c0,2.16,1.75,3.92,3.92,3.92s3.92-1.75,3.92-3.92-1.75-3.92-3.92-3.92-3.92,1.75-3.92,3.92Z"/>
              <g class="cls-9">
                <path class="cls-5" d="M258.78,131.72c0,3.16,2.56,5.73,5.73,5.73s5.73-2.56,5.73-5.73-2.56-5.73-5.73-5.73-5.73,2.56-5.73,5.73Z"/>
              </g>
              <g class="cls-9">
                <path class="cls-5" d="M256.49,131.72c0,4.43,3.59,8.02,8.02,8.02s8.02-3.59,8.02-8.02-3.59-8.02-8.02-8.02-8.02,3.59-8.02,8.02Z"/>
              </g>
              <g class="cls-8">
                <path class="cls-5" d="M254.87,131.72c0,5.33,4.32,9.65,9.65,9.65s9.65-4.32,9.65-9.65-4.32-9.65-9.65-9.65-9.65,4.32-9.65,9.65Z"/>
              </g>
            </g>
            <g>
              <path class="cls-5" d="M190.72,134.01c0,2.16,1.75,3.92,3.92,3.92s3.92-1.75,3.92-3.92-1.75-3.92-3.92-3.92-3.92,1.75-3.92,3.92Z"/>
              <g class="cls-9">
                <path class="cls-5" d="M188.92,134.01c0,3.16,2.56,5.73,5.73,5.73s5.73-2.56,5.73-5.73-2.56-5.73-5.73-5.73-5.73,2.56-5.73,5.73Z"/>
              </g>
              <g class="cls-9">
                <path class="cls-5" d="M186.62,134.01c0,4.43,3.59,8.02,8.02,8.02s8.02-3.59,8.02-8.02-3.59-8.02-8.02-8.02-8.02,3.59-8.02,8.02Z"/>
              </g>
              <g class="cls-8">
                <circle class="cls-5" cx="194.64" cy="134.01" r="9.65"/>
              </g>
            </g>
            <g>
              <path class="cls-5" d="M162.09,184.41c0,2.16,1.75,3.92,3.92,3.92s3.92-1.75,3.92-3.92-1.75-3.92-3.92-3.92-3.92,1.75-3.92,3.92Z"/>
              <g class="cls-9">
                <path class="cls-5" d="M160.28,184.41c0,3.16,2.56,5.73,5.73,5.73s5.73-2.56,5.73-5.73-2.56-5.73-5.73-5.73-5.73,2.56-5.73,5.73Z"/>
              </g>
              <g class="cls-9">
                <path class="cls-5" d="M157.99,184.41c0,4.43,3.59,8.02,8.02,8.02s8.02-3.59,8.02-8.02-3.59-8.02-8.02-8.02-8.02,3.59-8.02,8.02Z"/>
              </g>
              <g class="cls-8">
                <circle class="cls-5" cx="166.01" cy="184.41" r="9.65"/>
              </g>
            </g>
            <g>
              <path class="cls-5" d="M181.56,201.59c0,2.16,1.75,3.92,3.92,3.92s3.92-1.75,3.92-3.92-1.75-3.92-3.92-3.92-3.92,1.75-3.92,3.92Z"/>
              <g class="cls-9">
                <path class="cls-5" d="M179.75,201.59c0,3.16,2.56,5.73,5.73,5.73s5.73-2.56,5.73-5.73-2.56-5.73-5.73-5.73-5.73,2.56-5.73,5.73Z"/>
              </g>
              <g class="cls-9">
                <path class="cls-5" d="M177.46,201.59c0,4.43,3.59,8.02,8.02,8.02s8.02-3.59,8.02-8.02-3.59-8.02-8.02-8.02-8.02,3.59-8.02,8.02Z"/>
              </g>
              <g class="cls-8">
                <circle class="cls-5" cx="185.48" cy="201.59" r="9.65"/>
              </g>
            </g>
            <g>
              <path class="cls-5" d="M291.52,268.02c0,2.16,1.75,3.92,3.92,3.92s3.92-1.75,3.92-3.92-1.75-3.92-3.92-3.92-3.92,1.75-3.92,3.92Z"/>
              <g class="cls-9">
                <path class="cls-5" d="M289.71,268.02c0,3.16,2.56,5.73,5.73,5.73s5.73-2.56,5.73-5.73-2.56-5.73-5.73-5.73-5.73,2.56-5.73,5.73Z"/>
              </g>
              <g class="cls-9">
                <path class="cls-5" d="M287.42,268.02c0,4.43,3.59,8.02,8.02,8.02s8.02-3.59,8.02-8.02-3.59-8.02-8.02-8.02-8.02,3.59-8.02,8.02Z"/>
              </g>
              <g class="cls-8">
                <circle class="cls-5" cx="295.44" cy="268.02" r="9.65"/>
              </g>
            </g>
            <g>
              <path class="cls-5" d="M323.59,303.53c0,2.16,1.75,3.92,3.92,3.92s3.92-1.75,3.92-3.92-1.75-3.92-3.92-3.92-3.92,1.75-3.92,3.92Z"/>
              <g class="cls-9">
                <path class="cls-5" d="M321.78,303.53c0,3.16,2.56,5.73,5.73,5.73s5.73-2.56,5.73-5.73-2.56-5.73-5.73-5.73-5.73,2.56-5.73,5.73Z"/>
              </g>
              <g class="cls-9">
                <path class="cls-5" d="M319.49,303.53c0,4.43,3.59,8.02,8.02,8.02s8.02-3.59,8.02-8.02-3.59-8.02-8.02-8.02-8.02,3.59-8.02,8.02Z"/>
              </g>
              <g class="cls-8">
                <circle class="cls-5" cx="327.51" cy="303.53" r="9.65"/>
              </g>
            </g>
            <g>
              <path class="cls-5" d="M379.71,360.8c0,2.16,1.75,3.92,3.92,3.92s3.92-1.75,3.92-3.92-1.75-3.92-3.92-3.92-3.92,1.75-3.92,3.92Z"/>
              <g class="cls-9">
                <path class="cls-5" d="M377.91,360.8c0,3.16,2.56,5.73,5.73,5.73s5.73-2.56,5.73-5.73-2.56-5.73-5.73-5.73-5.73,2.56-5.73,5.73Z"/>
              </g>
              <g class="cls-9">
                <path class="cls-5" d="M375.62,360.8c0,4.43,3.59,8.02,8.02,8.02s8.02-3.59,8.02-8.02-3.59-8.02-8.02-8.02-8.02,3.59-8.02,8.02Z"/>
              </g>
              <g class="cls-8">
                <path class="cls-5" d="M373.99,360.8c0,5.33,4.32,9.65,9.65,9.65s9.65-4.32,9.65-9.65-4.32-9.65-9.65-9.65-9.65,4.32-9.65,9.65Z"/>
              </g>
            </g>
            <g>
              <path class="cls-5" d="M409.49,413.49c0,2.16,1.75,3.92,3.92,3.92s3.92-1.75,3.92-3.92-1.75-3.92-3.92-3.92-3.92,1.75-3.92,3.92Z"/>
              <g class="cls-9">
                <path class="cls-5" d="M407.69,413.49c0,3.16,2.56,5.73,5.73,5.73s5.73-2.56,5.73-5.73-2.56-5.73-5.73-5.73-5.73,2.56-5.73,5.73Z"/>
              </g>
              <g class="cls-9">
                <path class="cls-5" d="M405.4,413.49c0,4.43,3.59,8.02,8.02,8.02s8.02-3.59,8.02-8.02-3.59-8.02-8.02-8.02-8.02,3.59-8.02,8.02Z"/>
              </g>
              <g class="cls-8">
                <circle class="cls-5" cx="413.41" cy="413.49" r="9.65"/>
              </g>
            </g>
            <g>
              <path class="cls-5" d="M427.82,336.75c0,2.16,1.75,3.92,3.92,3.92s3.92-1.75,3.92-3.92-1.75-3.92-3.92-3.92-3.92,1.75-3.92,3.92Z"/>
              <g class="cls-9">
                <path class="cls-5" d="M426.01,336.75c0,3.16,2.56,5.73,5.73,5.73s5.73-2.56,5.73-5.73-2.56-5.73-5.73-5.73-5.73,2.56-5.73,5.73Z"/>
              </g>
              <g class="cls-9">
                <path class="cls-5" d="M423.72,336.75c0,4.43,3.59,8.02,8.02,8.02s8.02-3.59,8.02-8.02-3.59-8.02-8.02-8.02-8.02,3.59-8.02,8.02Z"/>
              </g>
              <g class="cls-8">
                <circle class="cls-5" cx="431.74" cy="336.75" r="9.65"/>
              </g>
            </g>
            <g>
              <path class="cls-5" d="M445,318.42c0,2.16,1.75,3.92,3.92,3.92s3.92-1.75,3.92-3.92-1.75-3.92-3.92-3.92-3.92,1.75-3.92,3.92Z"/>
              <g class="cls-9">
                <path class="cls-5" d="M443.19,318.42c0,3.16,2.56,5.73,5.73,5.73s5.73-2.56,5.73-5.73-2.56-5.73-5.73-5.73-5.73,2.56-5.73,5.73Z"/>
              </g>
              <g class="cls-9">
                <path class="cls-5" d="M440.9,318.42c0,4.43,3.59,8.02,8.02,8.02s8.02-3.59,8.02-8.02-3.59-8.02-8.02-8.02-8.02,3.59-8.02,8.02Z"/>
              </g>
              <g class="cls-8">
                <circle class="cls-5" cx="448.92" cy="318.42" r="9.65"/>
              </g>
            </g>
            <g>
              <circle class="cls-5" cx="477.56" cy="293.22" r="3.92"/>
              <g class="cls-9">
                <path class="cls-5" d="M471.83,293.22c0,3.16,2.56,5.73,5.73,5.73s5.73-2.56,5.73-5.73-2.56-5.73-5.73-5.73-5.73,2.56-5.73,5.73Z"/>
              </g>
              <g class="cls-9">
                <path class="cls-5" d="M469.54,293.22c0,4.43,3.59,8.02,8.02,8.02s8.02-3.59,8.02-8.02-3.59-8.02-8.02-8.02-8.02,3.59-8.02,8.02Z"/>
              </g>
              <g class="cls-8">
                <circle class="cls-5" cx="477.56" cy="293.22" r="9.65"/>
              </g>
            </g>
            <g>
              <path class="cls-5" d="M527.47,239.39c0,2.16,1.75,3.92,3.92,3.92s3.92-1.75,3.92-3.92-1.75-3.92-3.92-3.92-3.92,1.75-3.92,3.92Z"/>
              <g class="cls-9">
                <path class="cls-5" d="M525.66,239.39c0,3.16,2.56,5.73,5.73,5.73s5.73-2.56,5.73-5.73-2.56-5.73-5.73-5.73-5.73,2.56-5.73,5.73Z"/>
              </g>
              <g class="cls-9">
                <path class="cls-5" d="M523.37,239.39c0,4.43,3.59,8.02,8.02,8.02s8.02-3.59,8.02-8.02-3.59-8.02-8.02-8.02-8.02,3.59-8.02,8.02Z"/>
              </g>
              <g class="cls-8">
                <circle class="cls-5" cx="531.39" cy="239.39" r="9.65"/>
              </g>
            </g>
            <g>
              <path class="cls-5" d="M519.45,190.14c0,2.16,1.75,3.92,3.92,3.92s3.92-1.75,3.92-3.92-1.75-3.92-3.92-3.92-3.92,1.75-3.92,3.92Z"/>
              <g class="cls-9">
                <path class="cls-5" d="M517.64,190.14c0,3.16,2.56,5.73,5.73,5.73s5.73-2.56,5.73-5.73-2.56-5.73-5.73-5.73-5.73,2.56-5.73,5.73Z"/>
              </g>
              <g class="cls-9">
                <path class="cls-5" d="M515.35,190.14c0,4.43,3.59,8.02,8.02,8.02s8.02-3.59,8.02-8.02-3.59-8.02-8.02-8.02-8.02,3.59-8.02,8.02Z"/>
              </g>
              <g class="cls-8">
                <circle class="cls-5" cx="523.37" cy="190.14" r="9.65"/>
              </g>
            </g>
            <g>
              <path class="cls-5" d="M482.8,224.5c0,2.16,1.75,3.92,3.92,3.92s3.92-1.75,3.92-3.92-1.75-3.92-3.92-3.92-3.92,1.75-3.92,3.92Z"/>
              <g class="cls-9">
                <path class="cls-5" d="M480.99,224.5c0,3.16,2.56,5.73,5.73,5.73s5.73-2.56,5.73-5.73-2.56-5.73-5.73-5.73-5.73,2.56-5.73,5.73Z"/>
              </g>
              <g class="cls-9">
                <path class="cls-5" d="M478.7,224.5c0,4.43,3.59,8.02,8.02,8.02s8.02-3.59,8.02-8.02-3.59-8.02-8.02-8.02-8.02,3.59-8.02,8.02Z"/>
              </g>
              <g class="cls-8">
                <circle class="cls-5" cx="486.72" cy="224.5" r="9.65"/>
              </g>
            </g>
            <g>
              <path class="cls-5" d="M449.58,221.06c0,2.16,1.75,3.92,3.92,3.92s3.92-1.75,3.92-3.92-1.75-3.92-3.92-3.92-3.92,1.75-3.92,3.92Z"/>
              <g class="cls-9">
                <path class="cls-5" d="M447.78,221.06c0,3.16,2.56,5.73,5.73,5.73s5.73-2.56,5.73-5.73-2.56-5.73-5.73-5.73-5.73,2.56-5.73,5.73Z"/>
              </g>
              <g class="cls-9">
                <path class="cls-5" d="M445.48,221.06c0,4.43,3.59,8.02,8.02,8.02s8.02-3.59,8.02-8.02-3.59-8.02-8.02-8.02-8.02,3.59-8.02,8.02Z"/>
              </g>
              <g class="cls-8">
                <circle class="cls-5" cx="453.5" cy="221.06" r="9.65"/>
              </g>
            </g>
            <g>
              <circle class="cls-5" cx="420.29" cy="235.95" r="3.92"/>
              <g class="cls-9">
                <circle class="cls-5" cx="420.29" cy="235.95" r="5.73"/>
              </g>
              <g class="cls-9">
                <path class="cls-5" d="M412.27,235.95c0,4.43,3.59,8.02,8.02,8.02s8.02-3.59,8.02-8.02-3.59-8.02-8.02-8.02-8.02,3.59-8.02,8.02Z"/>
              </g>
              <g class="cls-8">
                <circle class="cls-5" cx="420.29" cy="235.95" r="9.65"/>
              </g>
            </g>
            <g>
              <path class="cls-5" d="M360.24,190.14c0,2.16,1.75,3.92,3.92,3.92s3.92-1.75,3.92-3.92-1.75-3.92-3.92-3.92-3.92,1.75-3.92,3.92Z"/>
              <g class="cls-9">
                <path class="cls-5" d="M358.43,190.14c0,3.16,2.56,5.73,5.73,5.73s5.73-2.56,5.73-5.73-2.56-5.73-5.73-5.73-5.73,2.56-5.73,5.73Z"/>
              </g>
              <g class="cls-9">
                <path class="cls-5" d="M356.14,190.14c0,4.43,3.59,8.02,8.02,8.02s8.02-3.59,8.02-8.02-3.59-8.02-8.02-8.02-8.02,3.59-8.02,8.02Z"/>
              </g>
              <g class="cls-8">
                <circle class="cls-5" cx="364.16" cy="190.14" r="9.65"/>
              </g>
            </g>
            <g>
              <path class="cls-5" d="M331.61,211.9c0,2.16,1.75,3.92,3.92,3.92s3.92-1.75,3.92-3.92-1.75-3.92-3.92-3.92-3.92,1.75-3.92,3.92Z"/>
              <g class="cls-9">
                <path class="cls-5" d="M329.8,211.9c0,3.16,2.56,5.73,5.73,5.73s5.73-2.56,5.73-5.73-2.56-5.73-5.73-5.73-5.73,2.56-5.73,5.73Z"/>
              </g>
              <g class="cls-9">
                <path class="cls-5" d="M327.51,211.9c0,4.43,3.59,8.02,8.02,8.02s8.02-3.59,8.02-8.02-3.59-8.02-8.02-8.02-8.02,3.59-8.02,8.02Z"/>
              </g>
              <g class="cls-8">
                <circle class="cls-5" cx="335.53" cy="211.9" r="9.65"/>
              </g>
            </g>
            <g>
              <path class="cls-5" d="M546.94,217.63c0,2.16,1.75,3.92,3.92,3.92s3.92-1.75,3.92-3.92-1.75-3.92-3.92-3.92-3.92,1.75-3.92,3.92Z"/>
              <g class="cls-9">
                <path class="cls-5" d="M545.13,217.63c0,3.16,2.56,5.73,5.73,5.73s5.73-2.56,5.73-5.73-2.56-5.73-5.73-5.73-5.73,2.56-5.73,5.73Z"/>
              </g>
              <g class="cls-9">
                <path class="cls-5" d="M542.84,217.63c0,4.43,3.59,8.02,8.02,8.02s8.02-3.59,8.02-8.02-3.59-8.02-8.02-8.02-8.02,3.59-8.02,8.02Z"/>
              </g>
              <g class="cls-8">
                <circle class="cls-5" cx="550.86" cy="217.63" r="9.65"/>
              </g>
            </g>
            <g>
              <path class="cls-5" d="M433.55,264.59c0,2.16,1.75,3.92,3.92,3.92s3.92-1.75,3.92-3.92-1.75-3.92-3.92-3.92-3.92,1.75-3.92,3.92Z"/>
              <g class="cls-9">
                <path class="cls-5" d="M431.74,264.59c0,3.16,2.56,5.73,5.73,5.73s5.73-2.56,5.73-5.73-2.56-5.73-5.73-5.73-5.73,2.56-5.73,5.73Z"/>
              </g>
              <g class="cls-9">
                <path class="cls-5" d="M429.45,264.59c0,4.43,3.59,8.02,8.02,8.02s8.02-3.59,8.02-8.02-3.59-8.02-8.02-8.02-8.02,3.59-8.02,8.02Z"/>
              </g>
              <g class="cls-8">
                <circle class="cls-5" cx="437.47" cy="264.59" r="9.65"/>
              </g>
            </g>
            <g>
              <path class="cls-5" d="M470.2,403.18c0,2.16,1.75,3.92,3.92,3.92s3.92-1.75,3.92-3.92-1.75-3.92-3.92-3.92-3.92,1.75-3.92,3.92Z"/>
              <g class="cls-9">
                <path class="cls-5" d="M468.39,403.18c0,3.16,2.56,5.73,5.73,5.73s5.73-2.56,5.73-5.73-2.56-5.73-5.73-5.73-5.73,2.56-5.73,5.73Z"/>
              </g>
              <g class="cls-9">
                <path class="cls-5" d="M466.1,403.18c0,4.43,3.59,8.02,8.02,8.02s8.02-3.59,8.02-8.02-3.59-8.02-8.02-8.02-8.02,3.59-8.02,8.02Z"/>
              </g>
              <g class="cls-8">
                <circle class="cls-5" cx="474.12" cy="403.18" r="9.65"/>
              </g>
            </g>
            <g>
              <circle class="cls-5" cx="431.74" cy="458.16" r="3.92"/>
              <g class="cls-9">
                <path class="cls-5" d="M426.01,458.16c0,3.16,2.56,5.73,5.73,5.73s5.73-2.56,5.73-5.73-2.56-5.73-5.73-5.73-5.73,2.56-5.73,5.73Z"/>
              </g>
              <g class="cls-9">
                <path class="cls-5" d="M423.72,458.16c0,4.43,3.59,8.02,8.02,8.02s8.02-3.59,8.02-8.02-3.59-8.02-8.02-8.02-8.02,3.59-8.02,8.02Z"/>
              </g>
              <g class="cls-8">
                <circle class="cls-5" cx="431.74" cy="458.16" r="9.65"/>
              </g>
            </g>
            <g>
              <path class="cls-5" d="M362.53,321.86c0,2.16,1.75,3.92,3.92,3.92s3.92-1.75,3.92-3.92-1.75-3.92-3.92-3.92-3.92,1.75-3.92,3.92Z"/>
              <g class="cls-9">
                <path class="cls-5" d="M360.72,321.86c0,3.16,2.56,5.73,5.73,5.73s5.73-2.56,5.73-5.73-2.56-5.73-5.73-5.73-5.73,2.56-5.73,5.73Z"/>
              </g>
              <g class="cls-9">
                <path class="cls-5" d="M358.43,321.86c0,4.43,3.59,8.02,8.02,8.02s8.02-3.59,8.02-8.02-3.59-8.02-8.02-8.02-8.02,3.59-8.02,8.02Z"/>
              </g>
              <g class="cls-8">
                <circle class="cls-5" cx="366.45" cy="321.86" r="9.65"/>
              </g>
            </g>
            <g>
              <path class="cls-5" d="M391.17,288.64c0,2.16,1.75,3.92,3.92,3.92s3.92-1.75,3.92-3.92-1.75-3.92-3.92-3.92-3.92,1.75-3.92,3.92Z"/>
              <g class="cls-9">
                <path class="cls-5" d="M389.36,288.64c0,3.16,2.56,5.73,5.73,5.73s5.73-2.56,5.73-5.73-2.56-5.73-5.73-5.73-5.73,2.56-5.73,5.73Z"/>
              </g>
              <g class="cls-9">
                <path class="cls-5" d="M387.07,288.64c0,4.43,3.59,8.02,8.02,8.02s8.02-3.59,8.02-8.02-3.59-8.02-8.02-8.02-8.02,3.59-8.02,8.02Z"/>
              </g>
              <g class="cls-8">
                <circle class="cls-5" cx="395.09" cy="288.64" r="9.65"/>
              </g>
            </g>
            <g>
              <circle class="cls-5" cx="243.89" cy="219.92" r="3.92"/>
              <g class="cls-9">
                <path class="cls-5" d="M238.17,219.92c0,3.16,2.56,5.73,5.73,5.73s5.73-2.56,5.73-5.73-2.56-5.73-5.73-5.73-5.73,2.56-5.73,5.73Z"/>
              </g>
              <g class="cls-9">
                <path class="cls-5" d="M235.88,219.92c0,4.43,3.59,8.02,8.02,8.02s8.02-3.59,8.02-8.02-3.59-8.02-8.02-8.02-8.02,3.59-8.02,8.02Z"/>
              </g>
              <g class="cls-8">
                <circle class="cls-5" cx="243.89" cy="219.92" r="9.65"/>
              </g>
            </g>
            <g>
              <circle class="cls-5" cx="211.82" cy="219.92" r="3.92"/>
              <g class="cls-9">
                <path class="cls-5" d="M206.1,219.92c0,3.16,2.56,5.73,5.73,5.73s5.73-2.56,5.73-5.73-2.56-5.73-5.73-5.73-5.73,2.56-5.73,5.73Z"/>
              </g>
              <g class="cls-9">
                <path class="cls-5" d="M203.81,219.92c0,4.43,3.59,8.02,8.02,8.02s8.02-3.59,8.02-8.02-3.59-8.02-8.02-8.02-8.02,3.59-8.02,8.02Z"/>
              </g>
              <g class="cls-8">
                <circle class="cls-5" cx="211.82" cy="219.92" r="9.65"/>
              </g>
            </g>
            <g>
              <path class="cls-5" d="M158.65,249.7c0,2.16,1.75,3.92,3.92,3.92s3.92-1.75,3.92-3.92-1.75-3.92-3.92-3.92-3.92,1.75-3.92,3.92Z"/>
              <g class="cls-9">
                <path class="cls-5" d="M156.84,249.7c0,3.16,2.56,5.73,5.73,5.73s5.73-2.56,5.73-5.73-2.56-5.73-5.73-5.73-5.73,2.56-5.73,5.73Z"/>
              </g>
              <g class="cls-9">
                <path class="cls-5" d="M154.55,249.7c0,4.43,3.59,8.02,8.02,8.02s8.02-3.59,8.02-8.02-3.59-8.02-8.02-8.02-8.02,3.59-8.02,8.02Z"/>
              </g>
              <g class="cls-8">
                <path class="cls-5" d="M152.93,249.7c0,5.33,4.32,9.65,9.65,9.65s9.65-4.32,9.65-9.65-4.32-9.65-9.65-9.65-9.65,4.32-9.65,9.65Z"/>
              </g>
            </g>
            <g>
              <path class="cls-5" d="M292.66,152.34c0,2.16,1.75,3.92,3.92,3.92s3.92-1.75,3.92-3.92-1.75-3.92-3.92-3.92-3.92,1.75-3.92,3.92Z"/>
              <g class="cls-9">
                <path class="cls-5" d="M290.86,152.34c0,3.16,2.56,5.73,5.73,5.73s5.73-2.56,5.73-5.73-2.56-5.73-5.73-5.73-5.73,2.56-5.73,5.73Z"/>
              </g>
              <g class="cls-9">
                <path class="cls-5" d="M288.56,152.34c0,4.43,3.59,8.02,8.02,8.02s8.02-3.59,8.02-8.02-3.59-8.02-8.02-8.02-8.02,3.59-8.02,8.02Z"/>
              </g>
              <g class="cls-8">
                <circle class="cls-5" cx="296.58" cy="152.34" r="9.65"/>
              </g>
            </g>
            <g>
              <path class="cls-5" d="M323.59,151.19c0,2.16,1.75,3.92,3.92,3.92s3.92-1.75,3.92-3.92-1.75-3.92-3.92-3.92-3.92,1.75-3.92,3.92Z"/>
              <g class="cls-9">
                <path class="cls-5" d="M321.78,151.19c0,3.16,2.56,5.73,5.73,5.73s5.73-2.56,5.73-5.73-2.56-5.73-5.73-5.73-5.73,2.56-5.73,5.73Z"/>
              </g>
              <g class="cls-9">
                <path class="cls-5" d="M319.49,151.19c0,4.43,3.59,8.02,8.02,8.02s8.02-3.59,8.02-8.02-3.59-8.02-8.02-8.02-8.02,3.59-8.02,8.02Z"/>
              </g>
              <g class="cls-8">
                <circle class="cls-5" cx="327.51" cy="151.19" r="9.65"/>
              </g>
            </g>
            <g>
              <path class="cls-5" d="M266.32,82.47c0,2.16,1.75,3.92,3.92,3.92s3.92-1.75,3.92-3.92-1.75-3.92-3.92-3.92-3.92,1.75-3.92,3.92Z"/>
              <g class="cls-9">
                <path class="cls-5" d="M264.51,82.47c0,3.16,2.56,5.73,5.73,5.73s5.73-2.56,5.73-5.73-2.56-5.73-5.73-5.73-5.73,2.56-5.73,5.73Z"/>
              </g>
              <g class="cls-9">
                <path class="cls-5" d="M262.22,82.47c0,4.43,3.59,8.02,8.02,8.02s8.02-3.59,8.02-8.02-3.59-8.02-8.02-8.02-8.02,3.59-8.02,8.02Z"/>
              </g>
              <g class="cls-8">
                <path class="cls-5" d="M260.59,82.47c0,5.33,4.32,9.65,9.65,9.65s9.65-4.32,9.65-9.65-4.32-9.65-9.65-9.65-9.65,4.32-9.65,9.65Z"/>
              </g>
            </g>
          </g>
        </g>
      </g>
    </g>
  </g>
</svg>