<?xml version="1.0" encoding="UTF-8"?>
<svg className="justify-center items-center flex" width="21rem" height="11rem" id="Camada_2" data-name="Camada 2" xmlns="http://www.w3.org/2000/svg" xmlns:xlink="http://www.w3.org/1999/xlink" viewBox="0 0 450.55 113.28">
  <defs>
    <style>
      .cls-1 {
        fill: url(#Gradiente_sem_nome_2);
      }

      .cls-1, .cls-2, .cls-3 {
        stroke-width: 0px;
      }

      .cls-2 {
        fill: url(#Gradiente_sem_nome_2-2);
      }

      .cls-3 {
        fill: url(#Gradiente_sem_nome_3);
      }
    </style>
    <linearGradient id="Gradiente_sem_nome_2" data-name="Gradiente sem nome 2" x1="120.25" y1="104.13" x2="330.3" y2="104.13" gradientUnits="userSpaceOnUse">
      <stop offset="0" stop-color="#63e5f4"/>
      <stop offset=".57" stop-color="#735bee"/>
    </linearGradient>
    <linearGradient id="Gradiente_sem_nome_3" data-name="Gradiente sem nome 3" x1="0" y1="67.53" x2="450.55" y2="67.53" gradientUnits="userSpaceOnUse">
      <stop offset="0" stop-color="#63e5f4"/>
      <stop offset="1" stop-color="#735bee"/>
    </linearGradient>
    <linearGradient id="Gradiente_sem_nome_2-2" data-name="Gradiente sem nome 2" x1="106.04" y1="13.7" x2="348.34" y2="13.7" xlink:href="#Gradiente_sem_nome_2"/>
  </defs>
  <g id="Camada_1-2" data-name="Camada 1">
    <g>
      <g>
        <path class="cls-1" d="M120.25,104.13c0-5.26,4.3-9.15,10.08-9.15,2.75,0,5.22.82,6.91,2.5l-.89.85c-1.67-1.52-3.69-2.14-5.97-2.14-4.97,0-8.72,3.4-8.72,7.94s3.75,7.94,8.72,7.94c2.28,0,4.3-.64,5.97-2.17l.89.85c-1.69,1.68-4.17,2.53-6.91,2.53-5.78,0-10.08-3.89-10.08-9.15ZM139.72,104.13c0-5.23,4.3-9.15,10.11-9.15s10.11,3.89,10.11,9.15-4.33,9.15-10.11,9.15-10.11-3.92-10.11-9.15ZM158.49,104.13c0-4.56-3.72-7.94-8.66-7.94s-8.69,3.38-8.69,7.94,3.72,7.94,8.69,7.94,8.66-3.38,8.66-7.94ZM178.34,113.15l-4.64-6.03c-.61.08-1.22.13-1.89.13h-5.55v5.9h-1.42v-18.04h6.97c4.89,0,7.83,2.27,7.83,6.08,0,2.86-1.67,4.85-4.55,5.65l4.86,6.31h-1.61ZM171.82,106.08c4.17,0,6.39-1.8,6.39-4.9s-2.22-4.9-6.39-4.9h-5.55v9.79h5.55ZM199.64,101.19c0,3.79-2.94,6.06-7.83,6.06h-5.55v5.9h-1.42v-18.04h6.97c4.89,0,7.83,2.27,7.83,6.08ZM198.2,101.19c0-3.12-2.22-4.9-6.39-4.9h-5.55v9.77h5.55c4.17,0,6.39-1.78,6.39-4.87ZM202.84,104.13c0-5.23,4.3-9.15,10.11-9.15s10.11,3.89,10.11,9.15-4.33,9.15-10.11,9.15-10.11-3.92-10.11-9.15ZM221.61,104.13c0-4.56-3.72-7.94-8.66-7.94s-8.69,3.38-8.69,7.94,3.72,7.94,8.69,7.94,8.66-3.38,8.66-7.94ZM239.91,113.15l-3.97-5.28c-.25.03-.5.03-.75.03h-4.39v5.26h-3.61v-18.04h8c5.11,0,8.28,2.42,8.28,6.42,0,2.73-1.5,4.74-4.14,5.7l4.47,5.93h-3.89ZM235.02,97.94h-4.22v7.19h4.22c3.17,0,4.8-1.34,4.8-3.61s-1.64-3.58-4.8-3.58ZM260.1,108.97h-9.72l-1.92,4.18h-3.72l8.75-18.04h3.55l8.78,18.04h-3.78l-1.94-4.18ZM258.9,106.34l-3.67-7.89-3.64,7.89h7.3ZM271.26,97.94h-6.44v-2.84h16.5v2.84h-6.44v15.21h-3.61v-15.21ZM284.03,95.1h3.61v18.04h-3.61v-18.04ZM310.53,95.1l-8.47,18.04h-3.55l-8.5-18.04h3.92l6.47,13.92,6.53-13.92h3.61ZM324.58,108.97h-9.72l-1.92,4.18h-3.72l8.75-18.04h3.55l8.78,18.04h-3.78l-1.94-4.18ZM323.38,106.34l-3.67-7.89-3.64,7.89h7.3Z"/>
        <path class="cls-3" d="M29.91,57.84H7.66c-2.98,0-3.53.53-3.53,3.48s.55,3.48,3.53,3.48h17c4.74,0,6.67,1.93,6.67,6.69v.94c0,4.75-1.93,6.69-6.67,6.69H0v-3.57h23.9c3,0,3.53-.53,3.53-3.53v-.12c0-3-.53-3.53-3.53-3.53H6.92c-4.75,0-6.69-1.93-6.69-6.69v-.71c0-4.75,1.93-6.69,6.69-6.69h22.99v3.57ZM51.89,54.27h29.13v3.57h-29.13v-3.57ZM51.89,75.54h29.54v3.57h-29.54v-3.57ZM62.33,64.91v3.55h-10.13v-3.55h10.13ZM134.46,57.84h-24.96c-3,0-3.53.53-3.53,3.53v10.65c0,3,.53,3.53,3.53,3.53h21.06v-7.13h-12.29v-3.57h16.2v14.26h-25.73c-4.75,0-6.67-1.93-6.67-6.69v-11.46c0-4.75,1.92-6.69,6.67-6.69h25.73v3.57ZM155.27,72.42v-18.15h3.9v17.74c0,3,.55,3.53,3.53,3.53h18.72c3,0,3.53-.53,3.53-3.53v-17.74h3.9v18.15c0,4.75-1.92,6.69-6.67,6.69h-20.23c-4.75,0-6.69-1.93-6.69-6.69ZM239.23,60.96v.83c0,4.75-1.92,6.67-6.67,6.67h-4.91l12.51,10.08v.57h-4.72l-15.45-12.42v-1.77h11.82c3,0,3.53-.55,3.53-3.53v-.02c0-3-.53-3.53-3.53-3.53h-25.02v-3.57h25.78c4.75,0,6.67,1.93,6.67,6.69ZM275.26,58l-15.7,21.11h-4.2v-.57l18.01-24.27h3.87l18.04,24.27v.57h-4.24l-15.77-21.11ZM315.9,59.43v19.32h-3.9v-25.19h1.95l26.72,19.6v-19.25h3.9v25.19h-1.95l-26.72-19.68ZM430.54,57.89l-15.7,21.11h-4.2v-.57l18.01-24.27h3.87l18.04,24.27v.57h-4.24l-15.77-21.11ZM373.91,57.41h20.41v-3.74h-20.41c-5.76,0-7.96,2.48-7.96,6.12v13.1c0,3.64,2.2,6.12,7.96,6.12h5.02v2.5h5.15v-2.5h10.24v-3.74h-20.41c-2.16,0-3.17-.83-3.17-2.34v-13.18c0-1.51,1.01-2.34,3.17-2.34Z"/>
      </g>
      <path class="cls-2" d="M148.38.45l-8.67,26.49h-6.58l-5.83-17.94-6.02,17.94h-6.55L106.04.45h6.36l5.98,18.62L124.62.45h5.68l6.05,18.77L142.51.45h5.86ZM149.83,13.7c0-7.87,6.13-13.7,14.49-13.7s14.49,5.79,14.49,13.7-6.17,13.7-14.49,13.7-14.49-5.83-14.49-13.7ZM172.61,13.7c0-5.03-3.56-8.48-8.29-8.48s-8.29,3.44-8.29,8.48,3.56,8.48,8.29,8.48,8.29-3.44,8.29-8.48ZM200.31,26.94l-5.11-7.38h-5.64v7.38h-6.13V.45h11.47c7.08,0,11.5,3.67,11.5,9.61,0,3.97-2.01,6.89-5.45,8.36l5.94,8.51h-6.58ZM194.56,5.45h-5v9.23h5c3.75,0,5.64-1.74,5.64-4.62s-1.89-4.62-5.64-4.62ZM220.91,16.54l-3.56,3.71v6.7h-6.09V.45h6.09v12.37L229.08.45h6.81l-10.97,11.81,11.62,14.68h-7.15l-8.48-10.41ZM236.62,24.33l2.08-4.62c2.23,1.63,5.56,2.76,8.74,2.76,3.63,0,5.11-1.21,5.11-2.84,0-4.96-15.4-1.55-15.4-11.39,0-4.5,3.63-8.25,11.16-8.25,3.33,0,6.74.79,9.2,2.35l-1.89,4.65c-2.46-1.4-5-2.08-7.34-2.08-3.63,0-5.03,1.36-5.03,3.03,0,4.88,15.4,1.51,15.4,11.24,0,4.43-3.67,8.21-11.24,8.21-4.2,0-8.44-1.25-10.79-3.06ZM287.14.45v26.49h-6.13v-10.86h-12.03v10.86h-6.13V.45h6.13v10.44h12.03V.45h6.13ZM291.77,13.7c0-7.87,6.13-13.7,14.49-13.7s14.49,5.79,14.49,13.7-6.17,13.7-14.49,13.7-14.49-5.83-14.49-13.7ZM314.55,13.7c0-5.03-3.56-8.48-8.29-8.48s-8.29,3.44-8.29,8.48,3.56,8.48,8.29,8.48,8.29-3.44,8.29-8.48ZM348.34,10.07c0,5.9-4.43,9.57-11.5,9.57h-5.34v7.3h-6.13V.45h11.47c7.08,0,11.5,3.67,11.5,9.61ZM342.14,10.07c0-2.91-1.89-4.62-5.64-4.62h-5v9.2h5c3.75,0,5.64-1.7,5.64-4.58Z"/>
    </g>
  </g>
</svg>